<!DOCTYPE svg PUBLIC "-//W3C//DTD SVG 20010904//EN" "http://www.w3.org/TR/2001/REC-SVG-20010904/DTD/svg10.dtd">
<svg version="1.0" xmlns="http://www.w3.org/2000/svg" width="800px" height="600px" viewBox="0 0 8000 6000" preserveAspectRatio="xMidYMid meet">
<g id="layer101" fill="#2f2f2f" stroke="none">
 <path d="M3299 3818 c0 -18 -10 -154 -22 -303 -21 -262 -23 -270 -44 -273 -26 -4 -31 -39 -35 -222 l-3 -115 68 -3 c64 -3 67 -4 67 -27 0 -18 -5 -25 -20 -25 -11 0 -20 -4 -20 -10 0 -5 9 -10 20 -10 17 0 20 -7 20 -50 0 -43 -3 -50 -20 -50 -11 0 -20 -4 -20 -10 0 -5 9 -10 20 -10 17 0 20 -7 20 -39 0 -30 -4 -40 -20 -44 -11 -3 -20 -11 -20 -17 0 -7 8 -10 19 -7 15 4 20 -2 25 -26 3 -17 2 -35 -4 -41 -16 -16 -11 -29 9 -23 24 6 56 -26 48 -47 -4 -9 -2 -18 4 -21 5 -4 12 0 15 8 4 12 12 13 40 4 19 -6 34 -16 34 -24 0 -7 5 -13 10 -13 6 0 10 6 10 14 0 8 16 16 38 20 22 3 51 15 65 27 l27 20 0 -40 c0 -30 -4 -41 -15 -41 -8 0 -15 -4 -15 -10 0 -5 7 -10 15 -10 11 0 15 -12 15 -50 0 -38 -4 -50 -15 -50 -8 0 -15 -4 -15 -10 0 -5 7 -10 15 -10 11 0 15 -12 15 -50 0 -38 -4 -50 -15 -50 -8 0 -15 -4 -15 -10 0 -5 6 -10 14 -10 10 0 15 -15 18 -50 1 -28 0 -50 -4 -50 -5 0 -8 -4 -8 -10 0 -5 7 -10 16 -10 24 0 54 -42 47 -67 -5 -24 6 -30 22 -14 14 13 59 -25 52 -44 -4 -8 -2 -17 4 -20 5 -4 12 1 15 9 10 26 74 17 74 -10 0 -8 5 -14 10 -14 6 0 10 6 10 14 0 7 18 18 40 24 35 9 40 8 45 -9 9 -27 27 -24 23 4 -4 31 36 64 58 47 19 -16 31 -5 15 14 -17 20 15 65 47 66 25 0 28 8 8 24 -18 15 -10 96 10 96 8 0 14 5 14 10 0 6 -7 10 -15 10 -11 0 -15 12 -15 50 0 38 4 50 15 50 8 0 15 5 15 10 0 6 -7 10 -15 10 -11 0 -15 12 -15 50 0 38 4 50 15 50 8 0 15 5 15 10 0 6 -7 10 -15 10 -11 0 -15 11 -15 41 l0 40 25 -20 c14 -11 39 -23 55 -26 17 -4 30 -13 30 -21 0 -8 5 -14 10 -14 6 0 10 6 10 14 0 16 60 28 77 14 7 -6 14 -5 18 2 3 5 3 10 -1 10 -4 0 3 11 16 25 13 14 31 25 41 25 12 0 17 8 15 30 -1 38 15 42 32 7 10 -20 17 -25 26 -18 16 13 56 3 56 -15 0 -8 5 -14 10 -14 6 0 10 6 10 14 0 16 60 28 77 14 7 -6 14 -5 18 2 3 5 3 10 -1 10 -4 0 3 11 16 25 13 14 32 25 42 25 15 0 18 5 13 19 -8 27 5 71 21 71 19 0 18 19 -1 26 -10 4 -15 20 -15 45 0 28 4 39 15 39 8 0 15 5 15 10 0 6 -7 10 -15 10 -11 0 -15 12 -15 45 0 38 3 45 20 45 11 0 20 -6 20 -12 0 -10 2 -10 8 -1 4 6 28 13 52 15 l45 3 -3 125 c-4 176 -9 210 -32 210 -23 0 -24 8 -45 290 -8 113 -18 231 -21 263 l-6 57 -719 0 -719 0 -1 -32z"/>
 </g>
<g id="layer102" fill="#365c46" stroke="none">
 <path d="M3300 3820 c0 -16 2 -30 4 -30 2 0 6 14 8 30 3 17 1 30 -4 30 -4 0 -8 -13 -8 -30z"/>
 <path d="M3339 3788 c-1 -13 -2 -39 -4 -58 -9 -110 -18 -218 -20 -240 -2 -14 -6 -76 -10 -137 l-8 -113 728 0 727 0 -6 44 c-4 24 -9 70 -11 103 -2 32 -7 83 -9 113 -3 30 -9 98 -12 150 -8 106 -11 141 -13 153 0 4 -307 7 -681 7 l-680 0 -1 -22z"/>
 <path d="M4743 3740 c0 -30 2 -43 4 -27 2 15 2 39 0 55 -2 15 -4 2 -4 -28z"/>
 <path d="M3293 3710 c0 -30 2 -43 4 -27 2 15 2 39 0 55 -2 15 -4 2 -4 -28z"/>
 <path d="M4753 3610 c0 -30 2 -43 4 -27 2 15 2 39 0 55 -2 15 -4 2 -4 -28z"/>
 <path d="M3283 3585 c0 -27 2 -38 4 -22 2 15 2 37 0 50 -2 12 -4 0 -4 -28z"/>
 <path d="M4763 3485 c0 -27 2 -38 4 -22 2 15 2 37 0 50 -2 12 -4 0 -4 -28z"/>
 <path d="M3273 3455 c0 -27 2 -38 4 -22 2 15 2 37 0 50 -2 12 -4 0 -4 -28z"/>
 <path d="M4773 3360 c0 -30 2 -43 4 -27 2 15 2 39 0 55 -2 15 -4 2 -4 -28z"/>
 <path d="M3263 3330 c0 -30 2 -43 4 -27 2 15 2 39 0 55 -2 15 -4 2 -4 -28z"/>
 <path d="M3242 3117 c-2 -45 -5 -103 -6 -129 l-4 -48 788 0 788 0 -4 47 c-1 27 -4 85 -6 130 l-3 83 -775 0 -775 0 -3 -83z"/>
 <path d="M4833 3125 c0 -44 2 -61 4 -37 2 23 2 59 0 80 -2 20 -4 1 -4 -43z"/>
 <path d="M3203 3120 c0 -41 2 -58 4 -37 2 20 2 54 0 75 -2 20 -4 3 -4 -38z"/>
 <path d="M3191 2963 c0 -28 2 -54 7 -57 4 -2 6 14 4 37 -5 68 -10 76 -11 20z"/>
 <path d="M4840 2958 c-3 -31 -1 -53 3 -49 5 5 7 30 5 57 l-3 49 -5 -57z"/>
 <path d="M3370 2736 c0 -162 0 -165 26 -195 33 -40 45 -39 33 1 -5 18 -9 106 -9 195 l0 163 -25 0 -25 0 0 -164z"/>
 <path d="M3440 2717 c0 -194 7 -227 50 -227 43 0 50 33 50 227 l0 183 -50 0 -50 0 0 -183z"/>
 <path d="M3560 2738 c0 -90 -5 -180 -11 -201 -6 -22 -8 -41 -5 -44 3 -3 24 12 46 34 32 32 40 48 40 76 0 19 -6 38 -12 41 -10 5 -10 7 0 12 7 3 12 25 12 54 0 29 -5 51 -12 54 -10 5 -10 7 0 12 7 4 12 27 12 65 l0 59 -35 0 -35 0 0 -162z"/>
 <path d="M3670 2500 c0 -380 1 -403 20 -440 20 -39 76 -90 99 -90 9 0 8 6 -1 23 -10 17 -14 127 -16 465 l-3 442 -49 0 -50 0 0 -400z"/>
 <path d="M3790 2458 c0 -424 1 -444 20 -475 15 -26 27 -33 50 -33 23 0 35 7 50 33 19 31 20 51 20 475 l0 442 -70 0 -70 0 0 -442z"/>
 <path d="M3948 2458 c-2 -346 -6 -448 -16 -466 -8 -13 -11 -26 -8 -30 12 -11 91 54 113 93 22 40 23 44 23 443 l0 402 -55 0 -54 0 -3 -442z"/>
 <path d="M4100 2841 c0 -38 5 -61 13 -65 10 -5 10 -7 0 -12 -8 -3 -13 -25 -13 -54 0 -29 5 -51 13 -54 10 -5 10 -7 0 -12 -23 -10 -15 -70 13 -103 33 -40 45 -39 33 1 -5 18 -9 106 -9 195 l0 163 -25 0 c-24 0 -25 -3 -25 -59z"/>
 <path d="M4170 2717 c0 -194 7 -227 50 -227 43 0 50 33 50 227 l0 183 -50 0 -50 0 0 -183z"/>
 <path d="M4290 2738 c0 -90 -5 -180 -11 -201 -6 -22 -8 -41 -5 -44 3 -3 24 12 46 34 l40 41 0 166 0 166 -35 0 -35 0 0 -162z"/>
 <path d="M4400 2876 c0 -13 6 -27 13 -30 10 -5 10 -7 0 -12 -8 -3 -13 -25 -13 -54 0 -29 5 -51 13 -54 10 -5 10 -7 0 -12 -25 -11 -14 -63 21 -102 40 -43 50 -40 36 9 -6 18 -10 89 -10 156 l0 123 -30 0 c-25 0 -30 -4 -30 -24z"/>
 <path d="M4480 2757 c0 -152 9 -187 50 -187 41 0 50 35 50 187 l0 143 -50 0 -50 0 0 -143z"/>
 <path d="M4600 2777 c0 -67 -4 -138 -10 -156 -14 -49 -4 -52 36 -9 l34 38 0 125 0 125 -30 0 -30 0 0 -123z"/>
 <path d="M4708 2702 c11 -7 11 -10 -2 -15 -9 -4 -15 -14 -15 -24 1 -17 2 -17 6 0 2 9 11 17 20 17 18 0 12 22 -8 28 -11 3 -11 2 -1 -6z"/>
 <path d="M3297 2623 c-12 -12 -7 -23 11 -23 14 0 14 2 3 9 -11 7 -10 10 5 14 14 3 15 5 3 6 -9 0 -19 -2 -22 -6z"/>
 <path d="M4637 2575 c-15 -14 -24 -25 -19 -25 5 0 17 9 26 19 10 11 28 22 40 24 19 4 19 4 1 5 -11 1 -33 -10 -48 -23z"/>
 <path d="M4390 2580 c0 -5 5 -9 12 -7 6 1 18 -11 26 -26 11 -23 16 -26 28 -16 8 6 12 14 9 18 -3 3 -10 -1 -15 -9 -8 -13 -10 -13 -10 1 0 15 -30 49 -43 49 -4 0 -7 -4 -7 -10z"/>
 <path d="M3337 2547 c-4 -10 -1 -17 6 -18 7 0 3 -5 -8 -10 -19 -9 -18 -9 3 -5 15 3 28 -4 42 -21 11 -14 20 -21 20 -16 0 5 -10 18 -21 29 -12 10 -25 28 -28 38 -7 17 -8 17 -14 3z"/>
 <path d="M4337 2495 c-15 -14 -24 -25 -19 -25 5 0 17 9 26 19 10 11 28 22 40 24 19 4 19 4 1 5 -11 1 -33 -10 -48 -23z"/>
 <path d="M3591 2484 c-19 -13 -29 -24 -23 -24 6 0 24 11 39 25 35 31 28 31 -16 -1z"/>
 <path d="M4128 2483 c13 -13 28 -23 35 -23 7 0 3 6 -8 12 -11 6 -27 16 -35 22 -9 6 -5 1 8 -11z"/>
 <path d="M3630 2102 c0 -17 4 -34 10 -37 6 -4 7 6 3 27 -8 44 -13 48 -13 10z"/>
 <path d="M4080 2071 c0 -5 6 -12 13 -14 7 -4 6 -6 -4 -6 -9 -1 -24 -13 -33 -28 l-17 -28 20 23 c11 13 29 24 41 25 25 2 25 9 0 25 -11 7 -20 8 -20 3z"/>
 <path d="M3662 2025 c12 -14 23 -25 25 -25 2 0 -4 11 -13 25 -9 14 -20 25 -25 25 -5 0 1 -11 13 -25z"/>
 <path d="M4000 1965 c-19 -14 -30 -25 -25 -25 5 0 17 7 27 16 14 14 20 14 33 4 21 -17 33 -4 14 15 -13 13 -19 12 -49 -10z"/>
 <path d="M3720 1967 c0 -2 11 -13 25 -25 14 -12 25 -18 25 -13 0 5 -11 16 -25 25 -14 9 -25 15 -25 13z"/>
 <path d="M3957 1912 c1 -8 3 -16 3 -18 0 -2 4 -4 8 -4 4 0 9 10 9 22 2 16 0 19 -6 9 -5 -7 -11 -9 -13 -5 -3 5 -3 3 -1 -4z"/>
 </g>
<g id="layer103" fill="#44ab6c" stroke="none">
 <path d="M3340 3793 c0 -10 -9 -126 -20 -258 -11 -132 -20 -252 -20 -267 l0 -28 720 0 720 0 0 33 c0 37 -27 395 -36 480 l-6 57 -679 0 c-640 0 -679 -1 -679 -17z"/>
 <path d="M4742 3760 c0 -19 2 -27 5 -17 2 9 2 25 0 35 -3 9 -5 1 -5 -18z"/>
 <path d="M3292 3730 c0 -19 2 -27 5 -17 2 9 2 25 0 35 -3 9 -5 1 -5 -18z"/>
 <path d="M3282 3600 c0 -19 2 -27 5 -17 2 9 2 25 0 35 -3 9 -5 1 -5 -18z"/>
 <path d="M4762 3500 c0 -19 2 -27 5 -17 2 9 2 25 0 35 -3 9 -5 1 -5 -18z"/>
 <path d="M4772 3380 c0 -19 2 -27 5 -17 2 9 2 25 0 35 -3 9 -5 1 -5 -18z"/>
 <path d="M3262 3350 c0 -19 2 -27 5 -17 2 9 2 25 0 35 -3 9 -5 1 -5 -18z"/>
 <path d="M3246 3138 c-3 -35 -7 -93 -9 -130 l-3 -68 786 0 786 0 -3 67 c-2 38 -6 96 -9 131 l-6 62 -768 0 -768 0 -6 -62z"/>
 <path d="M3203 3150 c0 -25 2 -35 4 -22 2 12 2 32 0 45 -2 12 -4 2 -4 -23z"/>
 <path d="M4833 3145 c0 -22 2 -30 4 -17 2 12 2 30 0 40 -3 9 -5 -1 -4 -23z"/>
 <path d="M3193 2960 c0 -30 2 -43 4 -27 2 15 2 39 0 55 -2 15 -4 2 -4 -28z"/>
 <path d="M4843 2960 c0 -30 2 -43 4 -27 2 15 2 39 0 55 -2 15 -4 2 -4 -28z"/>
 <path d="M3370 2747 c0 -129 3 -158 18 -187 20 -36 51 -57 39 -26 -4 10 -7 96 -7 192 l0 174 -25 0 -25 0 0 -153z"/>
 <path d="M3440 2723 c0 -195 7 -228 50 -228 43 0 50 33 50 228 l0 177 -50 0 -50 0 0 -177z"/>
 <path d="M3560 2731 c0 -93 -3 -183 -6 -201 l-7 -32 26 16 c44 30 77 126 42 126 -8 0 -15 5 -15 10 0 6 7 10 15 10 11 0 15 12 15 50 0 38 -4 50 -15 50 -8 0 -15 5 -15 10 0 6 7 10 15 10 12 0 15 13 15 60 l0 60 -35 0 -35 0 0 -169z"/>
 <path d="M3670 2508 c0 -359 2 -397 19 -433 16 -36 88 -112 97 -102 2 2 -1 19 -6 38 -6 20 -10 211 -10 461 l0 428 -50 0 -50 0 0 -392z"/>
 <path d="M3792 2453 c3 -378 5 -452 18 -471 27 -41 73 -41 100 0 13 19 15 93 18 471 l3 447 -71 0 -71 0 3 -447z"/>
 <path d="M3948 2453 c-2 -247 -7 -456 -12 -465 -13 -28 9 -22 50 14 73 65 74 65 74 506 l0 392 -55 0 -54 0 -3 -447z"/>
 <path d="M4100 2840 c0 -47 3 -60 15 -60 8 0 15 -4 15 -10 0 -5 -7 -10 -15 -10 -11 0 -15 -12 -15 -50 0 -38 4 -50 15 -50 8 0 15 -4 15 -10 0 -5 -7 -10 -15 -10 -9 0 -15 -9 -15 -23 0 -25 31 -89 46 -94 5 -2 8 76 6 187 l-3 190 -24 0 c-24 0 -25 -3 -25 -60z"/>
 <path d="M4170 2723 c0 -195 7 -228 50 -228 43 0 50 33 50 228 l0 177 -50 0 -50 0 0 -177z"/>
 <path d="M4290 2726 c0 -96 -4 -186 -10 -200 -12 -33 0 -33 34 -1 40 37 46 65 46 226 l0 149 -35 0 -35 0 0 -174z"/>
 <path d="M4400 2875 c0 -16 6 -25 15 -25 8 0 15 -4 15 -10 0 -5 -7 -10 -15 -10 -11 0 -15 -12 -15 -50 0 -38 4 -50 15 -50 8 0 15 -4 15 -10 0 -5 -7 -10 -15 -10 -8 0 -15 -7 -15 -16 0 -27 32 -84 53 -95 18 -10 19 -9 14 12 -4 13 -7 84 -7 157 l0 132 -30 0 c-25 0 -30 -4 -30 -25z"/>
 <path d="M4480 2763 c0 -153 10 -188 50 -188 40 0 50 35 50 188 l0 137 -50 0 -50 0 0 -137z"/>
 <path d="M4600 2768 c0 -73 -3 -144 -7 -157 -5 -21 -4 -22 14 -12 39 20 53 71 53 190 l0 111 -30 0 -30 0 0 -132z"/>
 </g>
<g id="layer104" fill="#59c885" stroke="none">
 <path d="M3340 3792 c0 -10 -6 -96 -14 -192 -8 -96 -18 -217 -21 -267 l-6 -93 720 0 c680 0 721 1 721 18 0 36 -25 379 -36 490 l-6 62 -679 0 c-646 0 -679 -1 -679 -18z"/>
 <path d="M3250 3188 c-2 -57 -11 -198 -15 -220 l-4 -28 789 0 790 0 -5 27 c-4 23 -13 164 -15 221 0 9 -161 12 -770 12 -609 0 -770 -3 -770 -12z"/>
 <path d="M3414 2715 c0 -104 2 -146 3 -92 2 54 2 139 0 190 -1 51 -3 7 -3 -98z"/>
 <path d="M3442 2715 c3 -176 4 -186 26 -207 l22 -22 23 22 c21 21 22 31 25 207 l4 185 -52 0 -52 0 4 -185z"/>
 <path d="M3564 2715 c0 -104 2 -146 3 -92 2 54 2 139 0 190 -1 51 -3 7 -3 -98z"/>
 <path d="M3740 2470 c0 -367 2 -435 15 -460 9 -17 17 -30 18 -30 1 0 0 64 -2 142 -2 93 -7 146 -15 150 -8 6 -8 8 2 8 9 0 12 69 12 310 0 269 -2 310 -15 310 -13 0 -15 -54 -15 -430z"/>
 <path d="M3792 2449 l3 -451 28 -24 c35 -30 39 -30 74 0 l28 24 3 451 3 451 -71 0 -71 0 3 -451z"/>
 <path d="M3950 2461 c0 -257 -4 -450 -10 -465 -7 -20 -6 -24 6 -19 42 16 44 42 44 493 0 422 0 430 -20 430 -19 0 -20 -8 -20 -439z"/>
 <path d="M4172 2715 c3 -176 4 -186 26 -207 l22 -22 23 22 c21 21 22 31 25 207 l4 185 -52 0 -52 0 4 -185z"/>
 <path d="M4288 2706 c-2 -155 0 -192 10 -184 15 13 18 378 2 378 -5 0 -10 -79 -12 -194z"/>
 <path d="M4454 2755 c0 -82 2 -115 3 -72 2 43 2 110 0 150 -1 40 -3 5 -3 -78z"/>
 <path d="M4482 2755 c3 -134 5 -146 26 -167 l22 -22 23 22 c20 21 22 33 25 167 l4 145 -52 0 -52 0 4 -145z"/>
 <path d="M4604 2755 c0 -82 2 -115 3 -72 2 43 2 110 0 150 -1 40 -3 5 -3 -78z"/>
 </g>
<g id="layer105" fill="#a2c1a7" stroke="none">
 <path d="M3340 3792 c0 -10 -7 -96 -14 -192 -8 -96 -17 -217 -21 -267 l-5 -93 720 0 c679 0 720 1 720 18 0 36 -25 379 -36 490 l-6 62 -679 0 c-646 0 -679 -1 -679 -18z"/>
 <path d="M3250 3188 c-2 -57 -11 -198 -15 -220 l-4 -28 789 0 790 0 -5 27 c-4 23 -13 164 -15 221 0 9 -161 12 -770 12 -609 0 -770 -3 -770 -12z"/>
 </g>

</svg>