<?xml version="1.0" encoding="utf-8"?>
<!-- Generator: Adobe Illustrator 22.1.0, SVG Export Plug-In . SVG Version: 6.00 Build 0)  -->
<svg version="1.1" id="Layer_1" xmlns="http://www.w3.org/2000/svg" xmlns:xlink="http://www.w3.org/1999/xlink" x="0px" y="0px"
	 viewBox="0 0 640 640" style="enable-background:new 0 0 640 640;" xml:space="preserve">
<style type="text/css">
	.st0{fill:#2F2F2F;}
	.st1{fill-opacity:0;stroke:#000000;stroke-opacity:0;}
	.st2{fill:#365C46;}
	.st3{fill:#44AB6C;}
	.st4{fill:#59C885;}
	.st5{fill:#A2C1A7;}
</style>
<g>
	<g>
		<g>
			<g>
				<path id="amPIpOzED" class="st0" d="M112,503.7c-6.4-79.9-7-82.4-13.4-83.3c-7.9-1.2-9.5-11.9-10.7-67.7
					c-0.1-2.3-0.4-14-0.9-35.1c12.4-0.6,19.4-0.9,20.7-0.9c19.5-0.9,20.4-1.2,20.4-8.2c0-5.5-1.5-7.6-6.1-7.6
					c-3.3,0-6.1-1.2-6.1-3.1c0-1.5,2.8-3,6.1-3c5.2,0,6.1-2.1,6.1-15.3s-0.9-15.2-6.1-15.2c-3.3,0-6.1-1.2-6.1-3.1
					c0-1.5,2.8-3,6.1-3c5.2,0,6.1-2.1,6.1-11.9c0-9.2-1.2-12.2-6.1-13.4c-3.3-0.9-6.1-3.4-6.1-5.2c0-2.1,2.4-3.1,5.8-2.1
					c4.6,1.2,6.1-0.6,7.6-7.9c0.9-5.2,0.6-10.7-1.2-12.5c-4.9-4.9-3.3-8.9,2.8-7c7.3,1.8,17.1-7.9,14.7-14.3
					c-1.2-2.8-0.6-5.5,1.2-6.4c1.5-1.2,3.7,0,4.6,2.4c1.2,3.7,3.7,4,12.2,1.2c5.8-1.8,10.4-4.9,10.4-7.3c0-2.1,1.5-4,3.1-4
					c1.8,0,3,1.8,3,4.3c0,2.4,4.9,4.9,11.6,6.1c6.7,0.9,15.6,4.6,19.8,8.2c0.6,0.4,3.3,2.4,8.2,6.1c0-7.3,0-11.4,0-12.2
					c0-9.2-1.2-12.5-4.6-12.5c-2.4,0-4.6-1.2-4.6-3.1c0-1.5,2.1-3.1,4.6-3.1c3.3,0,4.6-3.7,4.6-15.2c0-11.6-1.2-15.3-4.6-15.3
					c-2.4,0-4.6-1.2-4.6-3c0-1.5,2.1-3.1,4.6-3.1c3.3,0,4.6-3.7,4.6-15.2c0-11.6-1.2-15.3-4.6-15.3c-2.4,0-4.6-1.2-4.6-3.1
					c0-1.5,1.8-3,4.3-3c3,0,4.6-4.6,5.5-15.2c0.3-8.6,0-15.3-1.2-15.3c-1.5,0-2.4-1.2-2.4-3c0-1.5,2.1-3.1,4.9-3.1
					c7.3,0,16.5-12.8,14.3-20.4c-1.5-7.3,1.8-9.1,6.7-4.3c4.3,4,18-7.6,15.9-13.4c-1.2-2.4-0.6-5.2,1.2-6.1c1.5-1.2,3.7,0.3,4.6,2.8
					c3,7.9,22.6,5.2,22.6-3.1c0-2.4,1.5-4.3,3.1-4.3c1.8,0,3,1.8,3,4.3c0,2.1,5.5,5.5,12.2,7.3c10.7,2.7,12.2,2.4,13.7-2.7
					c2.8-8.2,8.2-7.3,7,1.2c-1.2,9.5,11,19.5,17.7,14.3c5.8-4.9,9.5-1.5,4.6,4.3c-5.2,6.1,4.6,19.8,14.3,20.1c7.6,0,8.5,2.4,2.4,7.3
					c-5.5,4.6-3,29.3,3.1,29.3c2.4,0,4.3,1.5,4.3,3c0,1.8-2.1,3.1-4.6,3.1c-3.4,0-4.6,3.7-4.6,15.3c0,11.6,1.2,15.2,4.6,15.2
					c2.4,0,4.6,1.5,4.6,3.1c0,1.8-2.1,3-4.6,3c-3.4,0-4.6,3.7-4.6,15.3c0,11.6,1.2,15.2,4.6,15.2c2.4,0,4.6,1.5,4.6,3.1
					c0,1.8-2.1,3.1-4.6,3.1c-3.4,0-4.6,3.3-4.6,12.5c0,0.8,0,4.9,0,12.2c4.6-3.7,7.1-5.7,7.6-6.1c4.3-3.4,11.9-7,16.8-7.9
					c5.2-1.2,9.1-4,9.1-6.4c0-2.4,1.5-4.3,3-4.3c1.8,0,3.1,1.8,3.1,4.3c0,4.9,18.3,8.5,23.5,4.3c2.1-1.8,4.3-1.5,5.5,0.6
					c0.9,1.5,0.9,3.1-0.3,3.1s0.9,3.4,4.9,7.6c4,4.3,9.5,7.6,12.5,7.6c3.7,0,5.2,2.4,4.6,9.2c-0.3,11.6,4.6,12.8,9.8,2.1
					c3-6.1,5.2-7.6,7.9-5.5c4.9,4,17.1,0.9,17.1-4.6c0-2.4,1.5-4.3,3-4.3c1.8,0,3.1,1.8,3.1,4.3c0,4.9,18.3,8.5,23.5,4.3
					c2.1-1.8,4.3-1.5,5.5,0.6c0.9,1.5,0.9,3.1-0.3,3.1c-1.2,0,0.9,3.3,4.9,7.6c4,4.3,9.8,7.6,12.8,7.6c4.6,0,5.5,1.5,4,5.8
					c-2.4,8.2,1.5,21.7,6.4,21.7c5.8,0,5.5,5.8-0.3,7.9c-3,1.2-4.6,6.1-4.6,13.7c0,8.6,1.2,11.9,4.6,11.9c2.4,0,4.6,1.5,4.6,3
					c0,1.8-2.1,3-4.6,3c-3.3,0-4.6,3.7-4.6,13.7c0,11.6,0.9,13.7,6.1,13.7c3.3,0,6.1-1.8,6.1-3.7c0-3.1,0.6-3.1,2.4-0.3
					c1.2,1.8,8.5,4,15.9,4.6c0.9,0.1,5.5,0.4,13.7,0.9c-0.5,22.9-0.9,35.6-0.9,38.1c-1.2,53.7-2.8,64.1-9.8,64.1
					c-7,0-7.3,2.4-13.7,88.5c-2.4,34.5-5.5,70.5-6.4,80.2c-0.1,1.2-0.7,7-1.8,17.4H338.4H119l-0.3-9.8
					C116.7,564.8,114.4,534,112,503.7z"/>
			</g>
			<g>
				<g>
					<path id="amPIpOzED_1_" class="st1" d="M112,503.7c-6.4-79.9-7-82.4-13.4-83.3c-7.9-1.2-9.5-11.9-10.7-67.7
						c-0.1-2.3-0.4-14-0.9-35.1c12.4-0.6,19.4-0.9,20.7-0.9c19.5-0.9,20.4-1.2,20.4-8.2c0-5.5-1.5-7.6-6.1-7.6
						c-3.3,0-6.1-1.2-6.1-3.1c0-1.5,2.8-3,6.1-3c5.2,0,6.1-2.1,6.1-15.3s-0.9-15.2-6.1-15.2c-3.3,0-6.1-1.2-6.1-3.1
						c0-1.5,2.8-3,6.1-3c5.2,0,6.1-2.1,6.1-11.9c0-9.2-1.2-12.2-6.1-13.4c-3.3-0.9-6.1-3.4-6.1-5.2c0-2.1,2.4-3.1,5.8-2.1
						c4.6,1.2,6.1-0.6,7.6-7.9c0.9-5.2,0.6-10.7-1.2-12.5c-4.9-4.9-3.3-8.9,2.8-7c7.3,1.8,17.1-7.9,14.7-14.3
						c-1.2-2.8-0.6-5.5,1.2-6.4c1.5-1.2,3.7,0,4.6,2.4c1.2,3.7,3.7,4,12.2,1.2c5.8-1.8,10.4-4.9,10.4-7.3c0-2.1,1.5-4,3.1-4
						c1.8,0,3,1.8,3,4.3c0,2.4,4.9,4.9,11.6,6.1c6.7,0.9,15.6,4.6,19.8,8.2c0.6,0.4,3.3,2.4,8.2,6.1c0-7.3,0-11.4,0-12.2
						c0-9.2-1.2-12.5-4.6-12.5c-2.4,0-4.6-1.2-4.6-3.1c0-1.5,2.1-3.1,4.6-3.1c3.3,0,4.6-3.7,4.6-15.2c0-11.6-1.2-15.3-4.6-15.3
						c-2.4,0-4.6-1.2-4.6-3c0-1.5,2.1-3.1,4.6-3.1c3.3,0,4.6-3.7,4.6-15.2c0-11.6-1.2-15.3-4.6-15.3c-2.4,0-4.6-1.2-4.6-3.1
						c0-1.5,1.8-3,4.3-3c3,0,4.6-4.6,5.5-15.2c0.3-8.6,0-15.3-1.2-15.3c-1.5,0-2.4-1.2-2.4-3c0-1.5,2.1-3.1,4.9-3.1
						c7.3,0,16.5-12.8,14.3-20.4c-1.5-7.3,1.8-9.1,6.7-4.3c4.3,4,18-7.6,15.9-13.4c-1.2-2.4-0.6-5.2,1.2-6.1
						c1.5-1.2,3.7,0.3,4.6,2.8c3,7.9,22.6,5.2,22.6-3.1c0-2.4,1.5-4.3,3.1-4.3c1.8,0,3,1.8,3,4.3c0,2.1,5.5,5.5,12.2,7.3
						c10.7,2.7,12.2,2.4,13.7-2.7c2.8-8.2,8.2-7.3,7,1.2c-1.2,9.5,11,19.5,17.7,14.3c5.8-4.9,9.5-1.5,4.6,4.3
						c-5.2,6.1,4.6,19.8,14.3,20.1c7.6,0,8.5,2.4,2.4,7.3c-5.5,4.6-3,29.3,3.1,29.3c2.4,0,4.3,1.5,4.3,3c0,1.8-2.1,3.1-4.6,3.1
						c-3.4,0-4.6,3.7-4.6,15.3c0,11.6,1.2,15.2,4.6,15.2c2.4,0,4.6,1.5,4.6,3.1c0,1.8-2.1,3-4.6,3c-3.4,0-4.6,3.7-4.6,15.3
						c0,11.6,1.2,15.2,4.6,15.2c2.4,0,4.6,1.5,4.6,3.1c0,1.8-2.1,3.1-4.6,3.1c-3.4,0-4.6,3.3-4.6,12.5c0,0.8,0,4.9,0,12.2
						c4.6-3.7,7.1-5.7,7.6-6.1c4.3-3.4,11.9-7,16.8-7.9c5.2-1.2,9.1-4,9.1-6.4c0-2.4,1.5-4.3,3-4.3c1.8,0,3.1,1.8,3.1,4.3
						c0,4.9,18.3,8.5,23.5,4.3c2.1-1.8,4.3-1.5,5.5,0.6c0.9,1.5,0.9,3.1-0.3,3.1s0.9,3.4,4.9,7.6c4,4.3,9.5,7.6,12.5,7.6
						c3.7,0,5.2,2.4,4.6,9.2c-0.3,11.6,4.6,12.8,9.8,2.1c3-6.1,5.2-7.6,7.9-5.5c4.9,4,17.1,0.9,17.1-4.6c0-2.4,1.5-4.3,3-4.3
						c1.8,0,3.1,1.8,3.1,4.3c0,4.9,18.3,8.5,23.5,4.3c2.1-1.8,4.3-1.5,5.5,0.6c0.9,1.5,0.9,3.1-0.3,3.1c-1.2,0,0.9,3.3,4.9,7.6
						c4,4.3,9.8,7.6,12.8,7.6c4.6,0,5.5,1.5,4,5.8c-2.4,8.2,1.5,21.7,6.4,21.7c5.8,0,5.5,5.8-0.3,7.9c-3,1.2-4.6,6.1-4.6,13.7
						c0,8.6,1.2,11.9,4.6,11.9c2.4,0,4.6,1.5,4.6,3c0,1.8-2.1,3-4.6,3c-3.3,0-4.6,3.7-4.6,13.7c0,11.6,0.9,13.7,6.1,13.7
						c3.3,0,6.1-1.8,6.1-3.7c0-3.1,0.6-3.1,2.4-0.3c1.2,1.8,8.5,4,15.9,4.6c0.9,0.1,5.5,0.4,13.7,0.9c-0.5,22.9-0.9,35.6-0.9,38.1
						c-1.2,53.7-2.8,64.1-9.8,64.1c-7,0-7.3,2.4-13.7,88.5c-2.4,34.5-5.5,70.5-6.4,80.2c-0.1,1.2-0.7,7-1.8,17.4H338.4H119l-0.3-9.8
						C116.7,564.8,114.4,534,112,503.7z"/>
				</g>
			</g>
		</g>
		<g>
			<g>
				<path id="b5yvXcyc" class="st2" d="M129.7,569.3c-2.8-33.6-5.5-66.5-6.1-73.2c-0.6-4.3-1.8-23.2-3-41.8
					c-0.2-2.3-1-13.8-2.4-34.5h222.1H562c-1.1,8.1-1.7,12.5-1.8,13.4c-1.2,7.3-2.8,21.4-3.4,31.4c-0.6,9.8-2.1,25.3-2.7,34.5
					c-0.9,9.1-2.8,29.9-3.7,45.8c-2.4,32.3-3.4,43-4,46.7c0,1.2-93.7,2.1-207.8,2.1c-13.8,0-83,0-207.5,0l-0.3-6.7
					C130.5,579.1,130.1,573.2,129.7,569.3z"/>
			</g>
			<g>
				<g>
					<path id="b5yvXcyc_1_" class="st1" d="M129.7,569.3c-2.8-33.6-5.5-66.5-6.1-73.2c-0.6-4.3-1.8-23.2-3-41.8
						c-0.2-2.3-1-13.8-2.4-34.5h222.1H562c-1.1,8.1-1.7,12.5-1.8,13.4c-1.2,7.3-2.8,21.4-3.4,31.4c-0.6,9.8-2.1,25.3-2.7,34.5
						c-0.9,9.1-2.8,29.9-3.7,45.8c-2.4,32.3-3.4,43-4,46.7c0,1.2-93.7,2.1-207.8,2.1c-13.8,0-83,0-207.5,0l-0.3-6.7
						C130.5,579.1,130.1,573.2,129.7,569.3z"/>
				</g>
			</g>
		</g>
		<g>
			<g>
				<path id="d2z5KbFQUg_1_" class="st2" d="M563.5,524.5c0.6,4.6,0.6,11.9,0,16.8"/>
			</g>
		</g>
		<g>
			<g>
				<path id="b1054kls7u_1_" class="st2" d="M108.9,455.8c-0.6,4.6-1.2,0.6-1.2-8.5"/>
			</g>
		</g>
		<g>
			<g>
				<path id="a2bTkN6xbR" class="st2" d="M99.5,342.9c-0.1-1-0.5-5.9-1.2-14.6h240.4h240.4c-0.7,8.6-1.1,13.4-1.2,14.3
					c-0.3,8.2-1.2,25.9-1.8,39.7c-0.1,1.7-0.4,10.1-0.9,25.3H338.7H102.2l-0.9-25.3C100.3,361.3,99.7,348.2,99.5,342.9z"/>
			</g>
			<g>
				<g>
					<path id="a2bTkN6xbR_1_" class="st1" d="M99.5,342.9c-0.1-1-0.5-5.9-1.2-14.6h240.4h240.4c-0.7,8.6-1.1,13.4-1.2,14.3
						c-0.3,8.2-1.2,25.9-1.8,39.7c-0.1,1.7-0.4,10.1-0.9,25.3H338.7H102.2l-0.9-25.3C100.3,361.3,99.7,348.2,99.5,342.9z"/>
				</g>
			</g>
		</g>
		<g>
			<g>
				<path id="b1GhVJV1Pj_1_" class="st2" d="M588,373.4c0.6,7,0.6,18,0,24.4"/>
			</g>
		</g>
		<g>
			<g>
				<path id="e9Me1OX8K" class="st2" d="M148.3,206.5c10.1-12.2,13.7-11.9,10.1,0.3c-1.5,5.5-2.8,32.3-2.8,59.5c0,3.3,0,19.9,0,49.7
					H148h-7.6v-50C140.4,232.5,143,212.6,148.3,206.5z"/>
			</g>
			<g>
				<g>
					<path id="e9Me1OX8K_1_" class="st1" d="M148.3,206.5c10.1-12.2,13.7-11.9,10.1,0.3c-1.5,5.5-2.8,32.3-2.8,59.5
						c0,3.3,0,19.9,0,49.7H148h-7.6v-50C140.4,232.5,143,212.6,148.3,206.5z"/>
				</g>
			</g>
		</g>
		<g>
			<g>
				<path id="e18H2ojiCG" class="st2" d="M177,191c13.1,0,15.2,10.1,15.2,69.3c0,3.7,0,22.3,0,55.8H177h-15.2v-55.8
					C163.2,214.1,168.2,191,177,191z"/>
			</g>
			<g>
				<g>
					<path id="e18H2ojiCG_1_" class="st1" d="M177,191c13.1,0,15.2,10.1,15.2,69.3c0,3.7,0,22.3,0,55.8H177h-15.2v-55.8
						C163.2,214.1,168.2,191,177,191z"/>
				</g>
			</g>
		</g>
		<g>
			<g>
				<path id="e4VGnvSQDt" class="st2" d="M195,205.3c-1.8-6.7-2.4-12.5-1.5-13.4c0.9-0.9,7.3,3.7,14,10.4
					c9.8,9.8,12.2,14.6,12.2,23.2c0,5.8-1.8,11.6-3.7,12.5c-3,1.5-3,2.1,0,3.7c2.1,0.9,3.7,7.6,3.7,16.5c0,8.9-1.5,15.6-3.7,16.5
					c-3,1.5-3,2.1,0,3.7c2.1,1.2,3.7,8.2,3.7,19.8c0,1.2,0,7.2,0,18H209h-10.7v-49.4C197.3,230,196.2,209.6,195,205.3z"/>
			</g>
			<g>
				<g>
					<path id="e4VGnvSQDt_1_" class="st1" d="M195,205.3c-1.8-6.7-2.4-12.5-1.5-13.4c0.9-0.9,7.3,3.7,14,10.4
						c9.8,9.8,12.2,14.6,12.2,23.2c0,5.8-1.8,11.6-3.7,12.5c-3,1.5-3,2.1,0,3.7c2.1,0.9,3.7,7.6,3.7,16.5c0,8.9-1.5,15.6-3.7,16.5
						c-3,1.5-3,2.1,0,3.7c2.1,1.2,3.7,8.2,3.7,19.8c0,1.2,0,7.2,0,18H209h-10.7v-49.4C197.3,230,196.2,209.6,195,205.3z"/>
				</g>
			</g>
		</g>
		<g>
			<g>
				<path id="h4SovEOMA" class="st2" d="M238,59.8c6.1-11.9,23.2-27.5,30.2-27.5c2.8,0,2.4,1.8-0.3,7c-3.1,5.2-4.3,38.8-4.9,141.9
					c-0.1,9-0.4,53.9-0.9,134.9h-14.9h-15.2V194C232.1,112.1,234.1,67.3,238,59.8z"/>
			</g>
			<g>
				<g>
					<path id="h4SovEOMA_1_" class="st1" d="M238,59.8c6.1-11.9,23.2-27.5,30.2-27.5c2.8,0,2.4,1.8-0.3,7
						c-3.1,5.2-4.3,38.8-4.9,141.9c-0.1,9-0.4,53.9-0.9,134.9h-14.9h-15.2V194C232.1,112.1,234.1,67.3,238,59.8z"/>
				</g>
			</g>
		</g>
		<g>
			<g>
				<path id="b68HGGrEg8" class="st2" d="M274.6,36.3c4.6-7.9,8.2-10.1,15.3-10.1c7,0,10.7,2.1,15.2,10.1
					c5.8,9.5,6.1,15.6,6.1,144.9c0,9,0,53.9,0,134.9h-21.4h-21.4V181.2C268.7,90.9,270.8,42.6,274.6,36.3z"/>
			</g>
			<g>
				<g>
					<path id="b68HGGrEg8_1_" class="st1" d="M274.6,36.3c4.6-7.9,8.2-10.1,15.3-10.1c7,0,10.7,2.1,15.2,10.1
						c5.8,9.5,6.1,15.6,6.1,144.9c0,9,0,53.9,0,134.9h-21.4h-21.4V181.2C268.7,90.9,270.8,42.6,274.6,36.3z"/>
				</g>
			</g>
		</g>
		<g>
			<g>
				<path id="c413FKUhDG" class="st2" d="M311.8,39c-2.4-4-3.4-7.9-2.4-9.2c3.7-3.3,27.8,16.5,34.5,28.4c6.7,12.2,7,13.4,7,135.1
					c0,8.2,0,49.1,0,122.7h-16.8h-16.5l-0.9-134.9C315.5,90.1,313.9,42.7,311.8,39z"/>
			</g>
			<g>
				<g>
					<path id="c413FKUhDG_1_" class="st1" d="M311.8,39c-2.4-4-3.4-7.9-2.4-9.2c3.7-3.3,27.8,16.5,34.5,28.4
						c6.7,12.2,7,13.4,7,135.1c0,8.2,0,49.1,0,122.7h-16.8h-16.5l-0.9-134.9C315.5,90.1,313.9,42.7,311.8,39z"/>
				</g>
			</g>
		</g>
		<g>
			<g>
				<path id="a3adt95Ma" class="st2" d="M367.1,278.2c3.1-1.5,3.1-2.1,0-3.7c-2.4-0.9-4-7.6-4-16.5c0-8.8,1.5-15.6,4-16.5
					c3.1-1.5,3.1-2.1,0-3.7c-7-3.1-4.6-21.4,4-31.4c10.1-12.2,13.7-11.9,10.1,0.3c-1.5,5.5-2.8,32.3-2.8,59.5c0,3.3,0,19.9,0,49.7
					c-4.6,0-7.1,0-7.6,0c-7.3,0-7.6-0.9-7.6-18C363.1,286.5,364.6,279.5,367.1,278.2z"/>
			</g>
			<g>
				<g>
					<path id="a3adt95Ma_1_" class="st1" d="M367.1,278.2c3.1-1.5,3.1-2.1,0-3.7c-2.4-0.9-4-7.6-4-16.5c0-8.8,1.5-15.6,4-16.5
						c3.1-1.5,3.1-2.1,0-3.7c-7-3.1-4.6-21.4,4-31.4c10.1-12.2,13.7-11.9,10.1,0.3c-1.5,5.5-2.8,32.3-2.8,59.5c0,3.3,0,19.9,0,49.7
						c-4.6,0-7.1,0-7.6,0c-7.3,0-7.6-0.9-7.6-18C363.1,286.5,364.6,279.5,367.1,278.2z"/>
				</g>
			</g>
		</g>
		<g>
			<g>
				<path id="cJtz88Dx" class="st2" d="M399.7,191c13.1,0,15.2,10.1,15.2,69.3c0,3.7,0,22.3,0,55.8h-15.2h-15.3v-55.8
					C385.9,214.1,391,191,399.7,191z"/>
			</g>
			<g>
				<g>
					<path id="cJtz88Dx_1_" class="st1" d="M399.7,191c13.1,0,15.2,10.1,15.2,69.3c0,3.7,0,22.3,0,55.8h-15.2h-15.3v-55.8
						C385.9,214.1,391,191,399.7,191z"/>
				</g>
			</g>
		</g>
		<g>
			<g>
				<path id="aQqjTF0mx" class="st2" d="M417.7,205.3c-1.8-6.7-2.4-12.5-1.5-13.4c0.9-0.9,7.3,3.7,14,10.4c0.8,0.8,4.9,5,12.2,12.5
					v50.6v50.6h-10.7h-10.7v-49.4C420,230,418.9,209.6,417.7,205.3z"/>
			</g>
			<g>
				<g>
					<path id="aQqjTF0mx_1_" class="st1" d="M417.7,205.3c-1.8-6.7-2.4-12.5-1.5-13.4c0.9-0.9,7.3,3.7,14,10.4
						c0.8,0.8,4.9,5,12.2,12.5v50.6v50.6h-10.7h-10.7v-49.4C420,230,418.9,209.6,417.7,205.3z"/>
				</g>
			</g>
		</g>
		<g>
			<g>
				<path id="h14TTRWd1b" class="st2" d="M458.6,299.6c3.1-1.5,3.1-2.1,0-3.7c-2.4-0.9-4-7.6-4-16.5s1.5-15.6,4-16.5
					c3.1-1.5,3.1-2.1,0-3.7c-7.6-3.4-4.3-19.2,6.4-31.1c12.2-13.1,15.2-12.2,11,2.8c-1.8,5.5-3.1,27.2-3.1,47.6c0,2.5,0,15,0,37.5
					c-5.5,0-8.5,0-9.1,0c-7.6,0-9.1-1.2-9.1-7.3C454.6,304.8,456.5,300.5,458.6,299.6z"/>
			</g>
			<g>
				<g>
					<path id="h14TTRWd1b_1_" class="st1" d="M458.6,299.6c3.1-1.5,3.1-2.1,0-3.7c-2.4-0.9-4-7.6-4-16.5s1.5-15.6,4-16.5
						c3.1-1.5,3.1-2.1,0-3.7c-7.6-3.4-4.3-19.2,6.4-31.1c12.2-13.1,15.2-12.2,11,2.8c-1.8,5.5-3.1,27.2-3.1,47.6c0,2.5,0,15,0,37.5
						c-5.5,0-8.5,0-9.1,0c-7.6,0-9.1-1.2-9.1-7.3C454.6,304.8,456.5,300.5,458.6,299.6z"/>
				</g>
			</g>
		</g>
		<g>
			<g>
				<path id="bchffSQxE" class="st2" d="M494.3,215.4c12.5,0,15.2,10.7,15.2,57.1c0,2.9,0,17.5,0,43.6h-15.2H479v-43.6
					C480.9,234.4,486,215.4,494.3,215.4z"/>
			</g>
			<g>
				<g>
					<path id="bchffSQxE_1_" class="st1" d="M494.3,215.4c12.5,0,15.2,10.7,15.2,57.1c0,2.9,0,17.5,0,43.6h-15.2H479v-43.6
						C480.9,234.4,486,215.4,494.3,215.4z"/>
				</g>
			</g>
		</g>
		<g>
			<g>
				<path id="bhkIiBMKK" class="st2" d="M512.6,230.9c-4.3-14.9-1.2-15.9,11-2.8c0.7,0.8,4.1,4.6,10.4,11.6v38.1v38.1h-9.2h-9.1
					v-37.5C514.8,250.5,513.8,234.6,512.6,230.9z"/>
			</g>
			<g>
				<g>
					<path id="bhkIiBMKK_1_" class="st1" d="M512.6,230.9c-4.3-14.9-1.2-15.9,11-2.8c0.7,0.8,4.1,4.6,10.4,11.6v38.1v38.1h-9.2h-9.1
						v-37.5C514.8,250.5,513.8,234.6,512.6,230.9z"/>
				</g>
			</g>
		</g>
		<g>
			<g>
				<path id="aspxnWduI" class="st2" d="M548,251.1c-2.8-1.2-4.6-4.3-4.6-7.3c0.3-5.2,0.6-5.2,1.8,0c0.6,2.8,3.4,5.2,6.1,5.2
					c5.5,0,3.7,6.7-2.4,8.5c-3.4,0.9-3.4,0.6-0.3-1.8C552,253.5,552,252.6,548,251.1z"/>
			</g>
			<g>
				<g>
					<path id="aspxnWduI_1_" class="st1" d="M548,251.1c-2.8-1.2-4.6-4.3-4.6-7.3c0.3-5.2,0.6-5.2,1.8,0c0.6,2.8,3.4,5.2,6.1,5.2
						c5.5,0,3.7,6.7-2.4,8.5c-3.4,0.9-3.4,0.6-0.3-1.8C552,253.5,552,252.6,548,251.1z"/>
				</g>
			</g>
		</g>
		<g>
			<g>
				<path id="b1cOcAtGwH" class="st2" d="M121.5,224.5c4.3,0,4.3,0.6,0.9,2.8c-3.4,2.1-3,3.1,1.5,4.3c4.3,0.9,4.6,1.5,0.9,1.8
					c-2.8,0-5.8-0.6-6.7-1.8C114.4,227.9,116,224.5,121.5,224.5z"/>
			</g>
			<g>
				<g>
					<path id="b1cOcAtGwH_1_" class="st1" d="M121.5,224.5c4.3,0,4.3,0.6,0.9,2.8c-3.4,2.1-3,3.1,1.5,4.3c4.3,0.9,4.6,1.5,0.9,1.8
						c-2.8,0-5.8-0.6-6.7-1.8C114.4,227.9,116,224.5,121.5,224.5z"/>
				</g>
			</g>
		</g>
		<g>
			<g>
				<path id="db9XafYb0" class="st2" d="M521.1,209.3c1.5,0,5.2,2.7,7.9,5.8c3,3.4,8.5,6.7,12.2,7.3c5.8,1.2,5.8,1.2,0.3,1.5
					c-3.4,0.3-10.1-3-14.7-7C522.4,212.6,519.6,209.3,521.1,209.3z"/>
			</g>
			<g>
				<g>
					<path id="db9XafYb0_1_" class="st1" d="M521.1,209.3c1.5,0,5.2,2.7,7.9,5.8c3,3.4,8.5,6.7,12.2,7.3c5.8,1.2,5.8,1.2,0.3,1.5
						c-3.4,0.3-10.1-3-14.7-7C522.4,212.6,519.6,209.3,521.1,209.3z"/>
				</g>
			</g>
		</g>
		<g>
			<g>
				<path id="a3aUQTM1iY" class="st2" d="M455.2,216.3c1.8,0.3,5.5-3.4,7.9-7.9c3.4-7,4.9-7.9,8.5-4.9c2.4,1.8,3.7,4.3,2.8,5.5
					c-0.9,0.9-3-0.3-4.6-2.7c-2.4-4-3.1-4-3.1,0.3c0,4.6-9.1,15-13.1,15c-1.2,0-2.1-1.2-2.1-3.1
					C451.6,216.9,453.1,215.7,455.2,216.3z"/>
			</g>
			<g>
				<g>
					<path id="a3aUQTM1iY_1_" class="st1" d="M455.2,216.3c1.8,0.3,5.5-3.4,7.9-7.9c3.4-7,4.9-7.9,8.5-4.9c2.4,1.8,3.7,4.3,2.8,5.5
						c-0.9,0.9-3-0.3-4.6-2.7c-2.4-4-3.1-4-3.1,0.3c0,4.6-9.1,15-13.1,15c-1.2,0-2.1-1.2-2.1-3.1
						C451.6,216.9,453.1,215.7,455.2,216.3z"/>
				</g>
			</g>
		</g>
		<g>
			<g>
				<path id="c4XQL9iSSN" class="st2" d="M132.1,202.9c2.1,0,0.9-1.5-2.4-3.1c-5.8-2.8-5.5-2.8,0.9-1.5c4.6,0.9,8.5-1.2,12.8-6.4
					c3.4-4.3,6.1-6.4,6.1-4.9c0,1.5-3.1,5.5-6.4,8.8c-3.7,3.1-7.6,8.6-8.5,11.6c-2.1,5.2-2.4,5.2-4.3,0.9
					C129.1,205.3,130,203.2,132.1,202.9z"/>
			</g>
			<g>
				<g>
					<path id="c4XQL9iSSN_1_" class="st1" d="M132.1,202.9c2.1,0,0.9-1.5-2.4-3.1c-5.8-2.8-5.5-2.8,0.9-1.5
						c4.6,0.9,8.5-1.2,12.8-6.4c3.4-4.3,6.1-6.4,6.1-4.9c0,1.5-3.1,5.5-6.4,8.8c-3.7,3.1-7.6,8.6-8.5,11.6c-2.1,5.2-2.4,5.2-4.3,0.9
						C129.1,205.3,130,203.2,132.1,202.9z"/>
				</g>
			</g>
		</g>
		<g>
			<g>
				<path id="b4BFXR6M2r" class="st2" d="M429.6,184.9c1.5,0,5.2,2.8,7.9,5.8c3,3.4,8.5,6.7,12.2,7.3c5.8,1.2,5.8,1.2,0.3,1.5
					c-3.4,0.3-10.1-3.1-14.6-7C430.8,188.2,428.1,184.9,429.6,184.9z"/>
			</g>
			<g>
				<g>
					<path id="b4BFXR6M2r_1_" class="st1" d="M429.6,184.9c1.5,0,5.2,2.8,7.9,5.8c3,3.4,8.5,6.7,12.2,7.3c5.8,1.2,5.8,1.2,0.3,1.5
						c-3.4,0.3-10.1-3.1-14.6-7C430.8,188.2,428.1,184.9,429.6,184.9z"/>
				</g>
			</g>
		</g>
		<g>
			<g>
				<path id="c1QqFyIYXc" class="st2" d="M200.8,181.8c1.8,0,7.3,3.4,11.9,7.6c10.7,9.5,8.5,9.5-4.9-0.3
					C202,185.2,199,181.8,200.8,181.8z"/>
			</g>
			<g>
				<g>
					<path id="c1QqFyIYXc_1_" class="st1" d="M200.8,181.8c1.8,0,7.3,3.4,11.9,7.6c10.7,9.5,8.5,9.5-4.9-0.3
						C202,185.2,199,181.8,200.8,181.8z"/>
				</g>
			</g>
		</g>
		<g>
			<g>
				<path id="cgxRtVn9g" class="st2" d="M382.3,181.8c2.1,0,0.9,1.8-2.4,3.7c-3.4,1.8-8.2,4.9-10.7,6.7c-2.8,1.8-1.5,0.3,2.4-3.3
					C375.6,184.9,380.2,181.8,382.3,181.8z"/>
			</g>
			<g>
				<g>
					<path id="cgxRtVn9g_1_" class="st1" d="M382.3,181.8c2.1,0,0.9,1.8-2.4,3.7c-3.4,1.8-8.2,4.9-10.7,6.7
						c-2.8,1.8-1.5,0.3,2.4-3.3C375.6,184.9,380.2,181.8,382.3,181.8z"/>
				</g>
			</g>
		</g>
		<g>
			<g>
				<path id="c7b2Fscvr" class="st2" d="M222.8,61.3c1.8-1.2,2.1,1.8,0.9,8.2c-2.4,13.4-4,14.6-4,3.1
					C219.7,67.4,220.9,62.2,222.8,61.3z"/>
			</g>
			<g>
				<g>
					<path id="c7b2Fscvr_1_" class="st1" d="M222.8,61.3c1.8-1.2,2.1,1.8,0.9,8.2c-2.4,13.4-4,14.6-4,3.1
						C219.7,67.4,220.9,62.2,222.8,61.3z"/>
				</g>
			</g>
		</g>
		<g>
			<g>
				<path id="b1rOPBpjCF" class="st2" d="M361,58.9c2.1-1.2,1.8-1.8-1.2-1.8c-2.7-0.3-7.3-4-10.1-8.5c-0.3-0.6-2.1-3.4-5.2-8.5
					c3.7,4.2,5.7,6.5,6.1,7c3.4,4,8.9,7.3,12.5,7.6c7.6,0.6,7.6,2.7,0,7.6c-3.4,2.1-6.1,2.4-6.1,0.9C357,61.6,358.8,59.5,361,58.9z"
					/>
			</g>
			<g>
				<g>
					<path id="b1rOPBpjCF_1_" class="st1" d="M361,58.9c2.1-1.2,1.8-1.8-1.2-1.8c-2.7-0.3-7.3-4-10.1-8.5c-0.3-0.6-2.1-3.4-5.2-8.5
						c3.7,4.2,5.7,6.5,6.1,7c3.4,4,8.9,7.3,12.5,7.6c7.6,0.6,7.6,2.7,0,7.6c-3.4,2.1-6.1,2.4-6.1,0.9C357,61.6,358.8,59.5,361,58.9z
						"/>
				</g>
			</g>
		</g>
		<g>
			<g>
				<path id="b7f1WwPG11" class="st2" d="M237.1,41.5c0.6,0-1.2,3.3-4,7.6c-2.8,4.3-6.1,7.6-7.6,7.6s0.3-3.4,4-7.6
					S236.5,41.5,237.1,41.5z"/>
			</g>
			<g>
				<g>
					<path id="b7f1WwPG11_1_" class="st1" d="M237.1,41.5c0.6,0-1.2,3.3-4,7.6c-2.8,4.3-6.1,7.6-7.6,7.6s0.3-3.4,4-7.6
						S236.5,41.5,237.1,41.5z"/>
				</g>
			</g>
		</g>
		<g>
			<g>
				<path id="arAoHQBO5" class="st2" d="M325,23.2c1.5,0,5.2,2.1,8.2,4.9c4.3,4.3,6.1,4.3,10.1,1.2c6.4-5.2,10.1-1.2,4.3,4.6
					c-4,4-5.8,3.7-15-3.1C326.8,26.5,323.4,23.2,325,23.2z"/>
			</g>
			<g>
				<g>
					<path id="arAoHQBO5_1_" class="st1" d="M325,23.2c1.5,0,5.2,2.1,8.2,4.9c4.3,4.3,6.1,4.3,10.1,1.2c6.4-5.2,10.1-1.2,4.3,4.6
						c-4,4-5.8,3.7-15-3.1C326.8,26.5,323.4,23.2,325,23.2z"/>
				</g>
			</g>
		</g>
		<g>
			<g>
				<path id="d3GaJeLuyV" class="st2" d="M254.8,23.8c4.3-3.7,7.6-5.5,7.6-4c0,1.5-3.4,4.9-7.6,7.6c-4.3,2.8-7.6,4.6-7.6,4
					C247.2,30.8,250.5,27.5,254.8,23.8z"/>
			</g>
			<g>
				<g>
					<path id="d3GaJeLuyV_1_" class="st1" d="M254.8,23.8c4.3-3.7,7.6-5.5,7.6-4c0,1.5-3.4,4.9-7.6,7.6c-4.3,2.8-7.6,4.6-7.6,4
						C247.2,30.8,250.5,27.5,254.8,23.8z"/>
				</g>
			</g>
		</g>
		<g>
			<g>
				<path id="ah6oPsTCL" class="st2" d="M320.4,9.1c0-0.6,1.2-1.2,2.4-1.2s2.7,3,2.7,6.7c0.6,4.9,0,5.8-1.8,2.7
					c-1.5-2.1-3.4-2.7-4-1.5c-0.9,1.5-0.9,0.9-0.3-1.2C319.8,12.2,320.4,9.8,320.4,9.1z"/>
			</g>
			<g>
				<g>
					<path id="ah6oPsTCL_1_" class="st1" d="M320.4,9.1c0-0.6,1.2-1.2,2.4-1.2s2.7,3,2.7,6.7c0.6,4.9,0,5.8-1.8,2.7
						c-1.5-2.1-3.4-2.7-4-1.5c-0.9,1.5-0.9,0.9-0.3-1.2C319.8,12.2,320.4,9.8,320.4,9.1z"/>
				</g>
			</g>
		</g>
		<g>
			<g>
				<path id="bNSuElk1Q" class="st3" d="M125.1,509.8c-3.4-40.3-6.1-76.9-6.1-81.5c0-0.6,0-3.4,0-8.6h219.7h219.7
					c0,6.1,0,9.4,0,10.1c0,11.3-8.2,120.5-11,146.5c-0.1,1.2-0.7,7-1.8,17.4c-124.3,0-193.3,0-207.2,0c-195.3,0-207.2-0.3-207.2-5.2
					C131.2,585.5,128.5,550.1,125.1,509.8z"/>
			</g>
			<g>
				<g>
					<path id="bNSuElk1Q_1_" class="st1" d="M125.1,509.8c-3.4-40.3-6.1-76.9-6.1-81.5c0-0.6,0-3.4,0-8.6h219.7h219.7
						c0,6.1,0,9.4,0,10.1c0,11.3-8.2,120.5-11,146.5c-0.1,1.2-0.7,7-1.8,17.4c-124.3,0-193.3,0-207.2,0
						c-195.3,0-207.2-0.3-207.2-5.2C131.2,585.5,128.5,550.1,125.1,509.8z"/>
				</g>
			</g>
		</g>
		<g>
			<g>
				<path id="a2iMaI2MPA" class="st3" d="M99.8,349c-0.1-1.4-0.4-8.3-0.9-20.7h239.8h239.8c-0.5,12.3-0.9,19.1-0.9,20.4
					c-0.6,11.6-1.8,29.3-2.8,40c-0.1,1.3-0.7,7.6-1.8,18.9H338.7H104.4l-1.8-18.9C101.1,369.8,100.2,356.5,99.8,349z"/>
			</g>
			<g>
				<g>
					<path id="a2iMaI2MPA_1_" class="st1" d="M99.8,349c-0.1-1.4-0.4-8.3-0.9-20.7h239.8h239.8c-0.5,12.3-0.9,19.1-0.9,20.4
						c-0.6,11.6-1.8,29.3-2.8,40c-0.1,1.3-0.7,7.6-1.8,18.9H338.7H104.4l-1.8-18.9C101.1,369.8,100.2,356.5,99.8,349z"/>
				</g>
			</g>
		</g>
		<g>
			<g>
				<path id="jI5nhiYQV" class="st3" d="M145.9,212.3c6.1-11,15.6-17.4,11.9-7.9c-1.2,3.1-2.1,29.3-2.1,58.6c0,3.5,0,21.2,0,53.1
					H148h-7.6v-46.7C141,237.3,142.8,218.2,145.9,212.3z"/>
			</g>
			<g>
				<g>
					<path id="jI5nhiYQV_1_" class="st1" d="M145.9,212.3c6.1-11,15.6-17.4,11.9-7.9c-1.2,3.1-2.1,29.3-2.1,58.6
						c0,3.5,0,21.2,0,53.1H148h-7.6v-46.7C141,237.3,142.8,218.2,145.9,212.3z"/>
				</g>
			</g>
		</g>
		<g>
			<g>
				<path id="f9L1jCcCc" class="st3" d="M177,192.5c13.1,0,15.2,10.1,15.2,69.6c0,3.6,0,21.6,0,54H177h-15.2v-54
					C163.2,215.7,168.2,192.5,177,192.5z"/>
			</g>
			<g>
				<g>
					<path id="f9L1jCcCc_1_" class="st1" d="M177,192.5c13.1,0,15.2,10.1,15.2,69.6c0,3.6,0,21.6,0,54H177h-15.2v-54
						C163.2,215.7,168.2,192.5,177,192.5z"/>
				</g>
			</g>
		</g>
		<g>
			<g>
				<path id="geahZLw9Y" class="st3" d="M196.5,203.2c-0.2-0.7-0.9-3.9-2.1-9.8c4.8,2.9,7.4,4.6,7.9,4.9
					c13.4,9.2,23.5,38.4,12.8,38.4c-2.4,0-4.6,1.5-4.6,3.1c0,1.8,2.1,3.1,4.6,3.1c3.3,0,4.6,3.7,4.6,15.2c0,11.6-1.2,15.3-4.6,15.3
					c-2.4,0-4.6,1.5-4.6,3.1c0,1.8,2.1,3,4.6,3c3.7,0,4.6,4,4.6,18.3c0,1.2,0,7.3,0,18.3H209h-10.7v-51.6
					C197.7,227.3,197.1,206.9,196.5,203.2z"/>
			</g>
			<g>
				<g>
					<path id="geahZLw9Y_1_" class="st1" d="M196.5,203.2c-0.2-0.7-0.9-3.9-2.1-9.8c4.8,2.9,7.4,4.6,7.9,4.9
						c13.4,9.2,23.5,38.4,12.8,38.4c-2.4,0-4.6,1.5-4.6,3.1c0,1.8,2.1,3.1,4.6,3.1c3.3,0,4.6,3.7,4.6,15.2c0,11.6-1.2,15.3-4.6,15.3
						c-2.4,0-4.6,1.5-4.6,3.1c0,1.8,2.1,3,4.6,3c3.7,0,4.6,4,4.6,18.3c0,1.2,0,7.3,0,18.3H209h-10.7v-51.6
						C197.7,227.3,197.1,206.9,196.5,203.2z"/>
				</g>
			</g>
		</g>
		<g>
			<g>
				<path id="brPJxlNKz" class="st3" d="M237.7,64.4c4.9-11,26.8-34.2,29.6-31.1c0.6,0.6-0.3,5.8-1.8,11.6c-1.8,6.1-3,64.4-3,140.7
					c0,8.7,0,52.2,0,130.6h-15.3h-15.2V196.5C232.3,115.7,234.2,71.7,237.7,64.4z"/>
			</g>
			<g>
				<g>
					<path id="brPJxlNKz_1_" class="st1" d="M237.7,64.4c4.9-11,26.8-34.2,29.6-31.1c0.6,0.6-0.3,5.8-1.8,11.6
						c-1.8,6.1-3,64.4-3,140.7c0,8.7,0,52.2,0,130.6h-15.3h-15.2V196.5C232.3,115.7,234.2,71.7,237.7,64.4z"/>
				</g>
			</g>
		</g>
		<g>
			<g>
				<path id="cJvOqake1" class="st3" d="M274.6,36c8.2-12.5,22.3-12.5,30.5,0c4,5.8,4.6,28.4,5.5,143.7c0.1,9.1,0.4,54.6,0.9,136.4
					h-21.7h-21.7l0.9-136.4C270.1,87.8,272,39.9,274.6,36z"/>
			</g>
			<g>
				<g>
					<path id="cJvOqake1_1_" class="st1" d="M274.6,36c8.2-12.5,22.3-12.5,30.5,0c4,5.8,4.6,28.4,5.5,143.7
						c0.1,9.1,0.4,54.6,0.9,136.4h-21.7h-21.7l0.9-136.4C270.1,87.8,272,39.9,274.6,36z"/>
				</g>
			</g>
		</g>
		<g>
			<g>
				<path id="be8oAlFyz" class="st3" d="M313.1,37.8c-4-8.5,2.8-6.7,15.3,4.3c22.3,19.8,22.6,19.8,22.6,154.4c0,8,0,47.8,0,119.6
					h-16.8h-16.5l-0.9-136.4C315.3,86.9,314.1,39.7,313.1,37.8z"/>
			</g>
			<g>
				<g>
					<path id="be8oAlFyz_1_" class="st1" d="M313.1,37.8c-4-8.5,2.8-6.7,15.3,4.3c22.3,19.8,22.6,19.8,22.6,154.4
						c0,8,0,47.8,0,119.6h-16.8h-16.5l-0.9-136.4C315.3,86.9,314.1,39.7,313.1,37.8z"/>
				</g>
			</g>
		</g>
		<g>
			<g>
				<path id="b1ax8rZfbQ" class="st3" d="M367.7,279.5c2.4,0,4.6-1.2,4.6-3c0-1.5-2.1-3.1-4.6-3.1c-3.4,0-4.6-3.7-4.6-15.3
					c0-11.6,1.2-15.2,4.6-15.2c2.4,0,4.6-1.2,4.6-3.1c0-1.5-2.1-3.1-4.6-3.1c-2.7,0-4.6-2.8-4.6-7c0-7.6,9.5-27.1,14-28.7
					c1.5-0.6,2.4,23.2,1.8,57.1c-0.1,3.9-0.4,23.2-0.9,58c-4.4,0-6.8,0-7.3,0c-7.3,0-7.6-0.9-7.6-18.3
					C363.1,283.4,364,279.5,367.7,279.5z"/>
			</g>
			<g>
				<g>
					<path id="b1ax8rZfbQ_1_" class="st1" d="M367.7,279.5c2.4,0,4.6-1.2,4.6-3c0-1.5-2.1-3.1-4.6-3.1c-3.4,0-4.6-3.7-4.6-15.3
						c0-11.6,1.2-15.2,4.6-15.2c2.4,0,4.6-1.2,4.6-3.1c0-1.5-2.1-3.1-4.6-3.1c-2.7,0-4.6-2.8-4.6-7c0-7.6,9.5-27.1,14-28.7
						c1.5-0.6,2.4,23.2,1.8,57.1c-0.1,3.9-0.4,23.2-0.9,58c-4.4,0-6.8,0-7.3,0c-7.3,0-7.6-0.9-7.6-18.3
						C363.1,283.4,364,279.5,367.7,279.5z"/>
				</g>
			</g>
		</g>
		<g>
			<g>
				<path id="blHCpdwSp" class="st3" d="M399.7,192.5c13.1,0,15.2,10.1,15.2,69.6c0,3.6,0,21.6,0,54h-15.2h-15.3v-54
					C385.9,215.7,391,192.5,399.7,192.5z"/>
			</g>
			<g>
				<g>
					<path id="blHCpdwSp_1_" class="st1" d="M399.7,192.5c13.1,0,15.2,10.1,15.2,69.6c0,3.6,0,21.6,0,54h-15.2h-15.3v-54
						C385.9,215.7,391,192.5,399.7,192.5z"/>
				</g>
			</g>
		</g>
		<g>
			<g>
				<path id="ah3j6gtm6" class="st3" d="M418,202c-3.7-10.1,0-10.1,10.4-0.3c12.2,11.3,14,19.8,14,68.9c0,3,0,18.2,0,45.5h-10.7
					h-10.7V263C420.2,225.1,419.2,204.8,418,202z"/>
			</g>
			<g>
				<g>
					<path id="ah3j6gtm6_1_" class="st1" d="M418,202c-3.7-10.1,0-10.1,10.4-0.3c12.2,11.3,14,19.8,14,68.9c0,3,0,18.2,0,45.5h-10.7
						h-10.7V263C420.2,225.1,419.2,204.8,418,202z"/>
				</g>
			</g>
		</g>
		<g>
			<g>
				<path id="lfpRLJVuh" class="st3" d="M459.2,300.8c2.4,0,4.6-1.2,4.6-3.1c0-1.5-2.1-3-4.6-3c-3.4,0-4.6-3.7-4.6-15.3
					s1.2-15.2,4.6-15.2c2.4,0,4.6-1.2,4.6-3.1c0-1.5-2.1-3-4.6-3s-4.6-2.1-4.6-4.9c0-8.2,9.8-25.6,16.2-29c5.5-3.1,5.8-2.8,4.3,3.7
					c-1.2,4-2.1,25.6-2.1,47.9c0,2.7,0,16.1,0,40.3c-5.5,0-8.5,0-9.1,0c-7.6,0-9.1-1.2-9.1-7.6C454.6,303.6,456.5,300.8,459.2,300.8
					z"/>
			</g>
			<g>
				<g>
					<path id="lfpRLJVuh_1_" class="st1" d="M459.2,300.8c2.4,0,4.6-1.2,4.6-3.1c0-1.5-2.1-3-4.6-3c-3.4,0-4.6-3.7-4.6-15.3
						s1.2-15.2,4.6-15.2c2.4,0,4.6-1.2,4.6-3.1c0-1.5-2.1-3-4.6-3s-4.6-2.1-4.6-4.9c0-8.2,9.8-25.6,16.2-29c5.5-3.1,5.8-2.8,4.3,3.7
						c-1.2,4-2.1,25.6-2.1,47.9c0,2.7,0,16.1,0,40.3c-5.5,0-8.5,0-9.1,0c-7.6,0-9.1-1.2-9.1-7.6
						C454.6,303.6,456.5,300.8,459.2,300.8z"/>
				</g>
			</g>
		</g>
		<g>
			<g>
				<path id="a2Y1ydnni9" class="st3" d="M494.3,216.9c12.2,0,15.2,10.7,15.2,57.3c0,2.8,0,16.7,0,41.8h-15.2H479v-41.8
					C481.1,236,486.1,216.9,494.3,216.9z"/>
			</g>
			<g>
				<g>
					<path id="a2Y1ydnni9_1_" class="st1" d="M494.3,216.9c12.2,0,15.2,10.7,15.2,57.3c0,2.8,0,16.7,0,41.8h-15.2H479v-41.8
						C481.1,236,486.1,216.9,494.3,216.9z"/>
				</g>
			</g>
		</g>
		<g>
			<g>
				<path id="e1SUCTPEho" class="st3" d="M513.5,227.9c-1.5-6.4-1.2-6.7,4.3-3.7c11.9,6.1,16.2,21.7,16.2,58c0,2.2,0,13.5,0,33.9
					h-9.2h-9.1v-40.3C515,246.5,514.3,230.5,513.5,227.9z"/>
			</g>
			<g>
				<g>
					<path id="e1SUCTPEho_1_" class="st1" d="M513.5,227.9c-1.5-6.4-1.2-6.7,4.3-3.7c11.9,6.1,16.2,21.7,16.2,58
						c0,2.2,0,13.5,0,33.9h-9.2h-9.1v-40.3C515,246.5,514.3,230.5,513.5,227.9z"/>
				</g>
			</g>
		</g>
		<g>
			<g>
				<path id="d1D46S6FPh" class="st4" d="M126.9,529.6c-2.4-29.3-5.5-66.2-6.4-81.5c-0.1-1.9-0.7-11.4-1.8-28.4
					c131.8,0,205,0,219.7,0c207.5,0,220,0.3,220,5.5c0,11-7.6,115.6-11,149.5c-0.1,1.3-0.7,7.6-1.8,18.9c-124.3,0-193.3,0-207.2,0
					c-197.1,0-207.2-0.3-207.2-5.5C131.2,585.2,129.4,558.9,126.9,529.6z"/>
			</g>
			<g>
				<g>
					<path id="d1D46S6FPh_1_" class="st1" d="M126.9,529.6c-2.4-29.3-5.5-66.2-6.4-81.5c-0.1-1.9-0.7-11.4-1.8-28.4
						c131.8,0,205,0,219.7,0c207.5,0,220,0.3,220,5.5c0,11-7.6,115.6-11,149.5c-0.1,1.3-0.7,7.6-1.8,18.9c-124.3,0-193.3,0-207.2,0
						c-197.1,0-207.2-0.3-207.2-5.5C131.2,585.2,129.4,558.9,126.9,529.6z"/>
				</g>
			</g>
		</g>
		<g>
			<g>
				<path id="b1bzzMibYA" class="st4" d="M99.2,336.8c-0.1-0.6-0.5-3.4-1.2-8.5h240.7h241c-0.9,4.9-1.4,7.7-1.5,8.2
					c-1.2,7-4,50-4.6,67.4c0,2.8-49.1,3.7-234.9,3.7s-234.9-0.9-234.9-3.7C103.2,386.5,100.4,343.5,99.2,336.8z"/>
			</g>
			<g>
				<g>
					<path id="b1bzzMibYA_1_" class="st1" d="M99.2,336.8c-0.1-0.6-0.5-3.4-1.2-8.5h240.7h241c-0.9,4.9-1.4,7.7-1.5,8.2
						c-1.2,7-4,50-4.6,67.4c0,2.8-49.1,3.7-234.9,3.7s-234.9-0.9-234.9-3.7C103.2,386.5,100.4,343.5,99.2,336.8z"/>
				</g>
			</g>
		</g>
		<g>
			<g>
				<path id="b8H8eOybpI" class="st4" d="M154.7,231.6c0.6,16.5,0.6,42.4,0,58c-0.3,15.6-0.9,2.1-0.9-29.9
					C153.8,227.9,154.4,215.1,154.7,231.6z"/>
			</g>
			<g>
				<g>
					<path id="b8H8eOybpI_1_" class="st1" d="M154.7,231.6c0.6,16.5,0.6,42.4,0,58c-0.3,15.6-0.9,2.1-0.9-29.9
						C153.8,227.9,154.4,215.1,154.7,231.6z"/>
				</g>
			</g>
		</g>
		<g>
			<g>
				<path id="b1LonRtojm" class="st4" d="M170.3,196.5c0.4-0.4,2.7-2.7,6.7-6.7c4.2,4,6.5,6.3,7,6.7c6.4,6.4,6.7,9.5,7.6,63.2
					c0.1,3.8,0.5,22.6,1.2,56.4H177h-15.9l1.2-56.4C163.2,221.8,165.8,200.8,170.3,196.5z"/>
			</g>
			<g>
				<g>
					<path id="b1LonRtojm_1_" class="st1" d="M170.3,196.5c0.4-0.4,2.7-2.7,6.7-6.7c4.2,4,6.5,6.3,7,6.7c6.4,6.4,6.7,9.5,7.6,63.2
						c0.1,3.8,0.5,22.6,1.2,56.4H177h-15.9l1.2-56.4C163.2,221.8,165.8,200.8,170.3,196.5z"/>
				</g>
			</g>
		</g>
		<g>
			<g>
				<path id="c2jBVzCKrw" class="st4" d="M200.5,231.6c0.6,16.5,0.6,42.4,0,58c-0.3,15.6-0.9,2.1-0.9-29.9
					C199.6,227.9,200.2,215.1,200.5,231.6z"/>
			</g>
			<g>
				<g>
					<path id="c2jBVzCKrw_1_" class="st1" d="M200.5,231.6c0.6,16.5,0.6,42.4,0,58c-0.3,15.6-0.9,2.1-0.9-29.9
						C199.6,227.9,200.2,215.1,200.5,231.6z"/>
				</g>
			</g>
		</g>
		<g>
			<g>
				<path id="broa4lA4J" class="st4" d="M257.8,44.5c2.8-5.2,5.2-9.2,5.5-9.2c0.3,0,0,19.5-0.6,43.3c-0.6,28.4-2.1,44.5-4.6,45.8
					c-2.4,1.8-2.4,2.4,0.6,2.4c2.7,0,3.7,21.1,3.7,94.6c0,82.1-0.6,94.6-4.6,94.6s-4.6-16.5-4.6-131.2
					C253.3,72.9,253.9,52.2,257.8,44.5z"/>
			</g>
			<g>
				<g>
					<path id="broa4lA4J_1_" class="st1" d="M257.8,44.5c2.8-5.2,5.2-9.2,5.5-9.2c0.3,0,0,19.5-0.6,43.3
						c-0.6,28.4-2.1,44.5-4.6,45.8c-2.4,1.8-2.4,2.4,0.6,2.4c2.7,0,3.7,21.1,3.7,94.6c0,82.1-0.6,94.6-4.6,94.6s-4.6-16.5-4.6-131.2
						C253.3,72.9,253.9,52.2,257.8,44.5z"/>
				</g>
			</g>
		</g>
		<g>
			<g>
				<path id="aGU6umCU" class="st4" d="M270,40.9c5.1-4.4,8-6.8,8.5-7.3c10.7-9.1,11.9-9.1,22.6,0c0.6,0.5,3.4,2.9,8.5,7.3
					l0.9,137.6l0.9,137.6h-21.7h-21.7l0.9-137.6L270,40.9z"/>
			</g>
			<g>
				<g>
					<path id="aGU6umCU_1_" class="st1" d="M270,40.9c5.1-4.4,8-6.8,8.5-7.3c10.7-9.1,11.9-9.1,22.6,0c0.6,0.5,3.4,2.9,8.5,7.3
						l0.9,137.6l0.9,137.6h-21.7h-21.7l0.9-137.6L270,40.9z"/>
				</g>
			</g>
		</g>
		<g>
			<g>
				<path id="b1FBbAI1" class="st4" d="M314.3,40.3c-2.1-6.1-1.8-7.3,1.8-5.8c12.8,4.9,13.4,12.8,13.4,150.4
					c0,128.8,0,131.2-6.1,131.2c-5.8,0-6.1-2.4-6.1-133.9C317.3,103.7,316.1,44.8,314.3,40.3z"/>
			</g>
			<g>
				<g>
					<path id="b1FBbAI1_1_" class="st1" d="M314.3,40.3c-2.1-6.1-1.8-7.3,1.8-5.8c12.8,4.9,13.4,12.8,13.4,150.4
						c0,128.8,0,131.2-6.1,131.2c-5.8,0-6.1-2.4-6.1-133.9C317.3,103.7,316.1,44.8,314.3,40.3z"/>
				</g>
			</g>
		</g>
		<g>
			<g>
				<path id="aYmafR0zM" class="st4" d="M393,196.5c0.5-0.4,2.7-2.7,6.7-6.7c4.2,4,6.6,6.3,7,6.7c6.4,6.4,6.7,9.5,7.6,63.2
					c0.1,3.8,0.5,22.6,1.2,56.4h-15.9h-15.9l1.2-56.4C385.9,221.8,388.5,200.8,393,196.5z"/>
			</g>
			<g>
				<g>
					<path id="aYmafR0zM_1_" class="st1" d="M393,196.5c0.5-0.4,2.7-2.7,6.7-6.7c4.2,4,6.6,6.3,7,6.7c6.4,6.4,6.7,9.5,7.6,63.2
						c0.1,3.8,0.5,22.6,1.2,56.4h-15.9h-15.9l1.2-56.4C385.9,221.8,388.5,200.8,393,196.5z"/>
				</g>
			</g>
		</g>
		<g>
			<g>
				<path id="b2N8w5lC3e" class="st4" d="M423.5,200.8c4.6,4,5.5,115.3,0.6,115.3c-1.5,0-3-24.1-3.7-59.2
					C419.9,209.6,420.5,198.3,423.5,200.8z"/>
			</g>
			<g>
				<g>
					<path id="b2N8w5lC3e_1_" class="st1" d="M423.5,200.8c4.6,4,5.5,115.3,0.6,115.3c-1.5,0-3-24.1-3.7-59.2
						C419.9,209.6,420.5,198.3,423.5,200.8z"/>
				</g>
			</g>
		</g>
		<g>
			<g>
				<path id="lxR3kXilU" class="st4" d="M472,249.9c0.6,13.1,0.6,33.6,0,45.8c-0.3,12.2-0.9,1.5-0.9-23.8
					C471.1,246.8,471.7,236.8,472,249.9z"/>
			</g>
			<g>
				<g>
					<path id="lxR3kXilU_1_" class="st1" d="M472,249.9c0.6,13.1,0.6,33.6,0,45.8c-0.3,12.2-0.9,1.5-0.9-23.8
						C471.1,246.8,471.7,236.8,472,249.9z"/>
				</g>
			</g>
		</g>
		<g>
			<g>
				<path id="b43MCHfFD" class="st4" d="M487.6,220.9c0.4-0.5,2.7-2.7,6.7-6.7c4.2,4,6.5,6.3,7,6.7c6.1,6.4,6.7,10.1,7.6,50.9
					c0.1,3,0.5,17.7,1.2,44.2h-15.9h-15.9l1.2-44.2C480.7,242.1,483.3,225.1,487.6,220.9z"/>
			</g>
			<g>
				<g>
					<path id="b43MCHfFD_1_" class="st1" d="M487.6,220.9c0.4-0.5,2.7-2.7,6.7-6.7c4.2,4,6.5,6.3,7,6.7c6.1,6.4,6.7,10.1,7.6,50.9
						c0.1,3,0.5,17.7,1.2,44.2h-15.9h-15.9l1.2-44.2C480.7,242.1,483.3,225.1,487.6,220.9z"/>
				</g>
			</g>
		</g>
		<g>
			<g>
				<path id="iHZyw7da6" class="st4" d="M517.8,249.9c0.6,13.1,0.6,33.6,0,45.8c-0.3,12.2-0.9,1.5-0.9-23.8
					C516.9,246.8,517.5,236.8,517.8,249.9z"/>
			</g>
			<g>
				<g>
					<path id="iHZyw7da6_1_" class="st1" d="M517.8,249.9c0.6,13.1,0.6,33.6,0,45.8c-0.3,12.2-0.9,1.5-0.9-23.8
						C516.9,246.8,517.5,236.8,517.8,249.9z"/>
				</g>
			</g>
		</g>
		<g>
			<g>
				<path id="a1ORnCu6h" class="st5" d="M126.9,529.6c-2.4-29.3-5.2-66.2-6.4-81.5c-0.1-1.9-0.6-11.4-1.5-28.4
					c131.8,0,205,0,219.7,0c207.2,0,219.7,0.3,219.7,5.5c0,11-7.6,115.6-11,149.5c-0.1,1.3-0.7,7.6-1.8,18.9
					c-124.3,0-193.3,0-207.2,0c-197.1,0-207.2-0.3-207.2-5.5C131.2,585.2,129.1,558.9,126.9,529.6z"/>
			</g>
			<g>
				<g>
					<path id="a1ORnCu6h_1_" class="st1" d="M126.9,529.6c-2.4-29.3-5.2-66.2-6.4-81.5c-0.1-1.9-0.6-11.4-1.5-28.4
						c131.8,0,205,0,219.7,0c207.2,0,219.7,0.3,219.7,5.5c0,11-7.6,115.6-11,149.5c-0.1,1.3-0.7,7.6-1.8,18.9
						c-124.3,0-193.3,0-207.2,0c-197.1,0-207.2-0.3-207.2-5.5C131.2,585.2,129.1,558.9,126.9,529.6z"/>
				</g>
			</g>
		</g>
		<g>
			<g>
				<path id="b1u6jZWRWg" class="st5" d="M99.2,336.8c-0.1-0.6-0.5-3.4-1.2-8.5h240.7h241c-0.9,4.9-1.4,7.7-1.5,8.2
					c-1.2,7-4,50-4.6,67.4c0,2.8-49.1,3.7-234.9,3.7s-234.9-0.9-234.9-3.7C103.2,386.5,100.4,343.5,99.2,336.8z"/>
			</g>
			<g>
				<g>
					<path id="b1u6jZWRWg_1_" class="st1" d="M99.2,336.8c-0.1-0.6-0.5-3.4-1.2-8.5h240.7h241c-0.9,4.9-1.4,7.7-1.5,8.2
						c-1.2,7-4,50-4.6,67.4c0,2.8-49.1,3.7-234.9,3.7s-234.9-0.9-234.9-3.7C103.2,386.5,100.4,343.5,99.2,336.8z"/>
				</g>
			</g>
		</g>
	</g>
</g>
</svg>
