<?xml version="1.0" encoding="UTF-8" standalone="no"?>
<!DOCTYPE svg PUBLIC "-//W3C//DTD SVG 1.1//EN" "http://www.w3.org/Graphics/SVG/1.1/DTD/svg11.dtd">
<svg version="1.1" xmlns="http://www.w3.org/2000/svg" xmlns:xlink="http://www.w3.org/1999/xlink" preserveAspectRatio="xMidYMid meet" viewBox="0 0 640 640" width="640" height="640"><defs><path d="M112 503.71C105.6 423.77 104.99 421.33 98.58 420.41C90.65 419.19 89.12 408.52 87.9 352.68C87.84 350.34 87.54 338.65 86.99 317.6C99.43 317.05 106.35 316.74 107.73 316.68C127.26 315.77 128.17 315.46 128.17 308.44C128.17 302.95 126.65 300.82 122.07 300.82C118.72 300.82 115.97 299.6 115.97 297.77C115.97 296.24 118.72 294.72 122.07 294.72C127.26 294.72 128.17 292.58 128.17 279.46C128.17 266.34 127.26 264.21 122.07 264.21C118.72 264.21 115.97 262.99 115.97 261.15C115.97 259.63 118.72 258.1 122.07 258.1C127.26 258.1 128.17 255.97 128.17 246.21C128.17 237.05 126.95 234 122.07 232.78C118.72 231.87 115.97 229.42 115.97 227.59C115.97 225.46 118.41 224.54 121.77 225.46C126.34 226.68 127.87 224.85 129.4 217.53C130.31 212.34 130.01 206.85 128.17 205.02C123.29 200.14 124.82 196.17 130.92 198C138.24 199.83 148.01 190.07 145.57 183.66C144.34 180.91 144.96 178.17 146.79 177.25C148.31 176.03 150.45 177.25 151.36 179.69C152.58 183.36 155.02 183.66 163.57 180.91C169.36 179.08 173.94 176.03 173.94 173.59C173.94 171.46 175.46 169.63 176.99 169.63C178.82 169.63 180.04 171.46 180.04 173.9C180.04 176.34 184.92 178.78 191.63 180C198.35 180.91 207.19 184.58 211.47 188.24C212.02 188.64 214.76 190.68 219.7 194.34C219.7 187.02 219.7 182.95 219.7 182.13C219.7 172.98 218.48 169.63 215.13 169.63C212.69 169.63 210.55 168.41 210.55 166.58C210.55 165.05 212.69 163.52 215.13 163.52C218.48 163.52 219.7 159.86 219.7 148.27C219.7 136.68 218.48 133.01 215.13 133.01C212.69 133.01 210.55 131.79 210.55 129.96C210.55 128.44 212.69 126.91 215.13 126.91C218.48 126.91 219.7 123.25 219.7 111.66C219.7 100.06 218.48 96.4 215.13 96.4C212.69 96.4 210.55 95.18 210.55 93.35C210.55 91.83 212.38 90.3 214.82 90.3C217.87 90.3 219.4 85.72 220.31 75.05C220.62 66.5 220.31 59.79 219.09 59.79C217.57 59.79 216.65 58.57 216.65 56.74C216.65 55.22 218.79 53.69 221.53 53.69C228.86 53.69 238.01 40.88 235.87 33.25C234.35 25.93 237.7 24.1 242.59 28.98C246.86 32.94 260.59 21.35 258.45 15.55C257.23 13.11 257.84 10.37 259.67 9.45C261.2 8.23 263.33 9.76 264.25 12.2C267.3 20.13 286.82 17.38 286.82 9.15C286.82 6.71 288.35 4.87 289.88 4.87C291.71 4.87 292.93 6.71 292.93 9.15C292.93 11.28 298.42 14.64 305.13 16.47C315.81 19.21 317.33 18.91 318.86 13.72C321.61 5.48 327.1 6.4 325.88 14.94C324.66 24.4 336.86 34.47 343.57 29.28C349.37 24.4 353.03 27.76 348.15 33.55C342.96 39.66 352.73 53.38 362.49 53.69C370.12 53.69 371.03 56.13 364.93 61.01C359.44 65.59 361.88 90.3 367.98 90.3C370.42 90.3 372.25 91.83 372.25 93.35C372.25 95.18 370.12 96.4 367.67 96.4C364.32 96.4 363.1 100.06 363.1 111.66C363.1 123.25 364.32 126.91 367.67 126.91C370.12 126.91 372.25 128.44 372.25 129.96C372.25 131.79 370.12 133.01 367.67 133.01C364.32 133.01 363.1 136.68 363.1 148.27C363.1 159.86 364.32 163.52 367.67 163.52C370.12 163.52 372.25 165.05 372.25 166.58C372.25 168.41 370.12 169.63 367.67 169.63C364.32 169.63 363.1 172.98 363.1 182.13C363.1 182.95 363.1 187.02 363.1 194.34C367.67 190.68 370.22 188.64 370.73 188.24C375 184.88 382.62 181.22 387.51 180.3C392.69 179.08 396.66 176.34 396.66 173.9C396.66 171.46 398.18 169.63 399.71 169.63C401.54 169.63 402.76 171.46 402.76 173.9C402.76 178.78 421.07 182.44 426.25 178.17C428.39 176.34 430.52 176.64 431.74 178.78C432.66 180.3 432.66 181.83 431.44 181.83C430.22 181.83 432.35 185.19 436.32 189.46C440.29 193.73 445.78 197.08 448.83 197.08C452.49 197.08 454.02 199.53 453.41 206.24C453.1 217.83 457.98 219.05 463.17 208.37C466.22 202.27 468.36 200.75 471.1 202.88C475.98 206.85 488.19 203.8 488.19 198.31C488.19 195.86 489.71 194.03 491.24 194.03C493.07 194.03 494.29 195.86 494.29 198.31C494.29 203.19 512.59 206.85 517.78 202.58C519.92 200.75 522.05 201.05 523.27 203.19C524.19 204.71 524.19 206.24 522.97 206.24C521.75 206.24 523.88 209.59 527.85 213.86C531.82 218.14 537.61 221.49 540.66 221.49C545.24 221.49 546.16 223.02 544.63 227.29C542.19 235.53 546.16 248.95 551.04 248.95C556.83 248.95 556.53 254.75 550.73 256.88C547.68 258.1 546.16 262.99 546.16 270.61C546.16 279.16 547.38 282.51 550.73 282.51C553.17 282.51 555.31 284.04 555.31 285.56C555.31 287.39 553.17 288.61 550.73 288.61C547.38 288.61 546.16 292.27 546.16 302.34C546.16 313.94 547.07 316.07 552.26 316.07C555.61 316.07 558.36 314.24 558.36 312.41C558.36 309.36 558.97 309.36 560.8 312.11C562.02 313.94 569.34 316.07 576.66 316.68C577.58 316.74 582.16 317.05 590.39 317.6C589.85 340.48 589.54 353.19 589.48 355.73C588.26 409.43 586.73 419.8 579.72 419.8C572.7 419.8 572.39 422.24 565.99 508.28C563.55 542.76 560.49 578.76 559.58 588.52C559.46 589.68 558.85 595.48 557.75 605.91L338.39 605.91L119.02 605.91L118.72 596.15C116.68 564.83 114.45 534.01 112 503.71Z" id="amPIpOzED"></path><path d="M120.24 587.61C120.85 587.61 122.07 591.88 122.68 596.76C123.6 601.95 122.99 605.91 121.46 605.91C120.24 605.91 119.02 601.95 119.02 596.76C119.02 591.88 119.63 587.61 120.24 587.61Z" id="agqffzZrP"></path><path d="M129.7 569.3C126.95 535.74 124.21 502.79 123.6 496.08C122.99 491.81 121.77 472.89 120.55 454.28C120.38 451.98 119.57 440.49 118.11 419.8L340.22 419.8L562.02 419.8C560.92 427.86 560.31 432.33 560.19 433.23C558.97 440.55 557.44 454.59 556.83 464.65C556.22 474.42 554.7 489.98 554.09 499.13C553.17 508.28 551.34 529.03 550.43 544.89C547.99 577.23 547.07 587.91 546.46 591.57C546.46 592.79 452.8 593.71 338.69 593.71C324.86 593.71 255.7 593.71 131.23 593.71L130.92 587C130.51 579.06 130.11 573.17 129.7 569.3Z" id="b5yvXcyc"></path><path d="M560.49 564.11C561.11 568.69 561.11 576.01 560.49 580.89C559.88 585.47 559.27 581.5 559.27 572.35C559.27 563.2 559.88 559.23 560.49 564.11Z" id="a1544vlkPA"></path><path d="M118.11 554.96C118.72 559.54 118.72 566.86 118.11 571.74C117.5 576.32 116.89 572.35 116.89 563.2C116.89 554.05 117.5 550.08 118.11 554.96Z" id="gdMN6Idh3"></path><path d="M563.55 524.45C564.16 529.03 564.16 536.35 563.55 541.23C562.94 545.81 562.33 541.84 562.33 532.69C562.33 523.54 562.94 519.57 563.55 524.45Z" id="d2z5KbFQUg"></path><path d="M115.06 518.35C115.67 522.93 115.67 529.64 115.06 533.6C114.45 537.27 113.84 533.6 113.84 525.06C113.84 516.82 114.45 513.47 115.06 518.35Z" id="a5dHqZOvN"></path><path d="M566.6 487.84C567.21 492.42 567.21 499.13 566.6 503.1C565.99 506.76 565.38 503.1 565.38 494.55C565.38 486.31 565.99 482.96 566.6 487.84Z" id="a3SejENGbJ"></path><path d="M112 478.69C112.62 483.26 112.62 489.98 112 493.94C111.39 497.6 110.78 493.94 110.78 485.4C110.78 477.16 111.39 473.81 112 478.69Z" id="cvmuXCPcO"></path><path d="M569.65 448.18C570.26 452.75 570.26 460.08 569.65 464.96C569.04 469.53 568.43 465.57 568.43 456.42C568.43 447.26 569.04 443.3 569.65 448.18Z" id="azkOw0h0O"></path><path d="M108.95 439.03C109.56 443.6 109.56 450.92 108.95 455.81C108.34 460.38 107.73 456.42 107.73 447.26C107.73 438.11 108.34 434.14 108.95 439.03Z" id="b1054kls7u"></path><path d="M99.5 342.92C99.41 341.94 99.01 337.06 98.28 328.28L338.69 328.28L579.11 328.28C578.37 336.88 577.97 341.66 577.89 342.62C577.58 350.85 576.66 368.55 576.05 382.28C575.99 383.97 575.69 392.41 575.14 407.6L338.69 407.6L102.24 407.6L101.33 382.28C100.31 361.33 99.7 348.21 99.5 342.92Z" id="a2bTkN6xbR"></path><path d="M587.95 373.43C588.56 380.45 588.56 391.43 587.95 397.84C587.34 403.94 586.73 398.14 586.73 384.72C586.73 371.29 587.34 366.11 587.95 373.43Z" id="b1GhVJV1Pj"></path><path d="M90.65 371.9C91.26 378.01 91.26 388.38 90.65 394.79C90.04 400.89 89.43 395.7 89.43 383.19C89.43 370.68 90.04 365.5 90.65 371.9Z" id="a2IuICCiKI"></path><path d="M87.9 317.9C89.12 317.29 89.73 322.17 89.12 329.19C87.6 349.94 86.07 352.38 85.77 335.29C85.77 326.75 86.38 318.82 87.9 317.9Z" id="a6ux0Jae6D"></path><path d="M589.78 318.82C591.31 320.34 591.92 327.97 591.31 336.21C591.25 337.2 590.94 342.19 590.39 351.16L588.87 333.77C588.67 322.99 588.97 318 589.78 318.82Z" id="a4bRlMZZzC"></path><path d="M148.31 206.54C158.38 194.34 162.04 194.64 158.38 206.85C156.85 212.34 155.63 239.19 155.63 266.34C155.63 269.66 155.63 286.23 155.63 316.07L148.01 316.07L140.38 316.07L140.38 266.04C140.38 232.48 143.02 212.64 148.31 206.54Z" id="e9Me1OX8K"></path><path d="M176.99 190.98C190.11 190.98 192.24 201.05 192.24 260.24C192.24 263.96 192.24 282.57 192.24 316.07L176.99 316.07L161.74 316.07L161.74 260.24C163.16 214.07 168.24 190.98 176.99 190.98Z" id="e18H2ojiCG"></path><path d="M194.99 205.32C193.16 198.61 192.55 192.81 193.47 191.9C194.38 190.98 200.79 195.56 207.5 202.27C217.26 212.03 219.7 216.92 219.7 225.46C219.7 231.26 217.87 237.05 216.04 237.97C212.99 239.49 212.99 240.1 216.04 241.63C218.18 242.54 219.7 249.26 219.7 258.1C219.7 266.95 218.18 273.66 216.04 274.58C212.99 276.1 212.99 276.71 216.04 278.24C218.18 279.46 219.7 286.48 219.7 298.07C219.7 299.27 219.7 305.27 219.7 316.07L209.03 316.07L198.35 316.07L198.35 266.65C197.33 230.03 196.21 209.59 194.99 205.32Z" id="e4VGnvSQDt"></path><path d="M238.01 59.79C244.11 47.89 261.2 32.33 268.21 32.33C270.96 32.33 270.65 34.16 267.91 39.35C264.86 44.54 263.64 78.1 263.03 181.22C262.97 190.21 262.66 235.16 262.11 316.07L247.16 316.07L231.91 316.07L231.91 194.03C232.11 112.06 234.14 67.32 238.01 59.79Z" id="h4SovEOMA"></path><path d="M274.62 36.3C279.2 28.37 282.86 26.23 289.88 26.23C296.89 26.23 300.55 28.37 305.13 36.3C310.93 45.76 311.23 51.86 311.23 181.22C311.23 190.21 311.23 235.16 311.23 316.07L289.88 316.07L268.52 316.07L268.52 181.22C268.72 90.91 270.76 42.6 274.62 36.3Z" id="b68HGGrEg8"></path><path d="M311.84 39.05C309.4 35.08 308.49 31.11 309.4 29.89C313.06 26.54 337.17 46.37 343.88 58.27C350.59 70.47 350.89 71.69 350.89 193.42C350.89 201.6 350.89 242.48 350.89 316.07L334.11 316.07L317.64 316.07L316.72 181.22C315.5 90.1 313.88 42.71 311.84 39.05Z" id="c413FKUhDG"></path><path d="M367.06 278.24C370.12 276.71 370.12 276.1 367.06 274.58C364.62 273.66 363.1 266.95 363.1 258.1C363.1 249.26 364.62 242.54 367.06 241.63C370.12 240.1 370.12 239.49 367.06 237.97C360.05 234.92 362.49 216.61 371.03 206.54C381.1 194.34 384.76 194.64 381.1 206.85C379.57 212.34 378.35 239.19 378.35 266.34C378.35 269.66 378.35 286.23 378.35 316.07C373.78 316.07 371.23 316.07 370.73 316.07C363.4 316.07 363.1 315.16 363.1 298.07C363.1 286.48 364.62 279.46 367.06 278.24Z" id="a3adt95Ma"></path><path d="M399.71 190.98C412.83 190.98 414.96 201.05 414.96 260.24C414.96 263.96 414.96 282.57 414.96 316.07L399.71 316.07L384.45 316.07L384.45 260.24C385.88 214.07 390.96 190.98 399.71 190.98Z" id="cJtz88Dx"></path><path d="M417.71 205.32C415.88 198.61 415.27 192.81 416.18 191.9C417.1 190.98 423.51 195.56 430.22 202.27C431.03 203.11 435.1 207.27 442.42 214.78L442.42 265.43L442.42 316.07L431.74 316.07L421.07 316.07L421.07 266.65C420.05 230.03 418.93 209.59 417.71 205.32Z" id="aQqjTF0mx"></path><path d="M458.59 299.6C461.64 298.07 461.64 297.46 458.59 295.94C456.15 295.02 454.63 288.31 454.63 279.46C454.63 270.61 456.15 263.9 458.59 262.99C461.64 261.46 461.64 260.85 458.59 259.32C450.97 255.97 454.32 240.1 465 228.2C477.2 215.09 480.25 216 475.98 230.95C474.15 236.44 472.93 258.1 472.93 278.55C472.93 281.05 472.93 293.56 472.93 316.07C467.44 316.07 464.39 316.07 463.78 316.07C456.15 316.07 454.63 314.85 454.63 308.75C454.63 304.78 456.46 300.51 458.59 299.6Z" id="h14TTRWd1b"></path><path d="M494.29 215.39C506.8 215.39 509.54 226.07 509.54 272.44C509.54 275.35 509.54 289.89 509.54 316.07L494.29 316.07L479.03 316.07L479.03 272.44C480.87 234.41 485.95 215.39 494.29 215.39Z" id="bchffSQxE"></path><path d="M512.59 230.95C508.32 216 511.37 215.09 523.58 228.2C524.27 228.98 527.73 232.84 533.95 239.8L533.95 277.93L533.95 316.07L524.8 316.07L515.65 316.07L515.65 278.55C514.83 250.48 513.82 234.61 512.59 230.95Z" id="bhkIiBMKK"></path><path d="M547.99 251.09C545.24 249.87 543.41 246.82 543.41 243.76C543.71 238.58 544.02 238.58 545.24 243.76C545.85 246.51 548.6 248.95 551.34 248.95C556.83 248.95 555 255.66 548.9 257.49C545.55 258.41 545.55 258.1 548.6 255.66C551.95 253.53 551.95 252.61 547.99 251.09Z" id="aspxnWduI"></path><path d="M121.46 224.54C125.73 224.54 125.73 225.15 122.38 227.29C119.02 229.42 119.33 230.34 123.9 231.56C128.17 232.48 128.48 233.09 124.82 233.39C122.07 233.39 119.02 232.78 118.11 231.56C114.45 227.9 115.97 224.54 121.46 224.54Z" id="b1cOcAtGwH"></path><path d="M521.14 209.29C522.66 209.29 526.32 212.03 529.07 215.09C532.12 218.44 537.61 221.8 541.27 222.41C547.07 223.63 547.07 223.63 541.58 223.93C538.22 224.24 531.51 220.88 526.93 216.92C522.36 212.64 519.61 209.29 521.14 209.29Z" id="db9XafYb0"></path><path d="M455.24 216.31C457.07 216.61 460.73 212.95 463.17 208.37C466.53 201.36 468.05 200.44 471.71 203.49C474.15 205.32 475.37 207.76 474.46 208.98C473.54 209.9 471.41 208.68 469.88 206.24C467.44 202.27 466.83 202.27 466.83 206.54C466.83 211.12 457.68 221.49 453.71 221.49C452.49 221.49 451.58 220.27 451.58 218.44C451.58 216.92 453.1 215.7 455.24 216.31Z" id="a3aUQTM1iY"></path><path d="M132.14 202.88C134.28 202.88 133.06 201.36 129.7 199.83C123.9 197.08 124.21 197.08 130.62 198.31C135.19 199.22 139.16 197.08 143.43 191.9C146.79 187.63 149.53 185.49 149.53 187.02C149.53 188.54 146.48 192.51 143.12 195.86C139.46 198.92 135.5 204.41 134.58 207.46C132.45 212.64 132.14 212.64 130.31 208.37C129.09 205.32 130.01 203.19 132.14 202.88Z" id="c4XQL9iSSN"></path><path d="M429.61 184.88C431.13 184.88 434.8 187.63 437.54 190.68C440.59 194.03 446.08 197.39 449.75 198C455.54 199.22 455.54 199.22 450.05 199.53C446.69 199.83 439.98 196.47 435.41 192.51C430.83 188.24 428.08 184.88 429.61 184.88Z" id="b4BFXR6M2r"></path><path d="M200.79 181.83C202.62 181.83 208.11 185.19 212.69 189.46C223.36 198.92 221.23 198.92 207.8 189.15C202.01 185.19 198.96 181.83 200.79 181.83Z" id="c1QqFyIYXc"></path><path d="M382.32 181.83C384.45 181.83 383.23 183.66 379.88 185.49C376.52 187.32 371.64 190.37 369.2 192.2C366.45 194.03 367.67 192.51 371.64 188.85C375.61 184.88 380.18 181.83 382.32 181.83Z" id="cgxRtVn9g"></path><path d="M222.75 61.32C224.59 60.1 224.89 63.15 223.67 69.55C221.23 82.98 219.7 84.2 219.7 72.61C219.7 67.42 220.92 62.23 222.75 61.32Z" id="c7b2Fscvr"></path><path d="M360.96 58.88C363.1 57.66 362.79 57.05 359.74 57.05C357 56.74 352.42 53.08 349.67 48.5C349.33 47.93 347.6 45.09 344.49 39.96C348.15 44.17 350.18 46.51 350.59 46.98C353.95 50.94 359.44 54.3 363.1 54.61C370.73 55.22 370.73 57.35 363.1 62.23C359.74 64.37 357 64.67 357 63.15C357 61.62 358.83 59.49 360.96 58.88Z" id="b1rOPBpjCF"></path><path d="M237.09 41.49C237.7 41.49 235.87 44.84 233.13 49.11C230.38 53.38 227.03 56.74 225.5 56.74C223.97 56.74 225.81 53.38 229.47 49.11C233.13 44.84 236.48 41.49 237.09 41.49Z" id="b7f1WwPG11"></path><path d="M324.96 23.18C326.49 23.18 330.15 25.32 333.2 28.06C337.47 32.33 339.3 32.33 343.27 29.28C349.67 24.1 353.34 28.06 347.54 33.86C343.57 37.82 341.74 37.52 332.59 30.81C326.79 26.54 323.44 23.18 324.96 23.18Z" id="arAoHQBO5"></path><path d="M254.79 23.79C259.06 20.13 262.42 18.3 262.42 19.82C262.42 21.35 259.06 24.71 254.79 27.45C250.52 30.2 247.16 32.03 247.16 31.42C247.16 30.81 250.52 27.45 254.79 23.79Z" id="d3GaJeLuyV"></path><path d="M320.38 9.15C320.38 8.54 321.61 7.93 322.83 7.93C324.05 7.93 325.57 10.98 325.57 14.64C326.18 19.52 325.57 20.43 323.74 17.38C322.22 15.25 320.38 14.64 319.77 15.86C318.86 17.38 318.86 16.77 319.47 14.64C319.77 12.2 320.38 9.76 320.38 9.15Z" id="ah6oPsTCL"></path><path d="M125.12 509.81C121.77 469.53 119.02 432.92 119.02 428.35C119.02 427.78 119.02 424.93 119.02 419.8L338.69 419.8L558.36 419.8C558.36 425.85 558.36 429.2 558.36 429.87C558.36 441.16 550.12 550.38 547.38 576.32C547.25 577.48 546.64 583.27 545.55 593.71C421.25 593.71 352.2 593.71 338.39 593.71C143.12 593.71 131.23 593.4 131.23 588.52C131.23 585.47 128.48 550.08 125.12 509.81Z" id="bNSuElk1Q"></path><path d="M560.49 573.27C561.11 576.01 561.11 580.89 560.49 583.95C559.58 586.69 558.97 584.25 558.97 578.45C558.97 572.66 559.58 570.22 560.49 573.27Z" id="a4VnhAejc"></path><path d="M118.11 564.11C118.72 566.86 118.72 571.74 118.11 574.79C117.19 577.54 116.58 575.1 116.58 569.3C116.58 563.5 117.19 561.06 118.11 564.11Z" id="airmKuMo9"></path><path d="M115.06 524.45C115.67 527.2 115.67 532.08 115.06 535.13C114.14 537.88 113.53 535.44 113.53 529.64C113.53 523.84 114.14 521.4 115.06 524.45Z" id="nfzO0uN4w"></path><path d="M566.6 493.94C567.21 496.69 567.21 501.57 566.6 504.62C565.68 507.37 565.07 504.93 565.07 499.13C565.07 493.33 565.68 490.89 566.6 493.94Z" id="g7QyMQZnY"></path><path d="M569.65 457.33C570.26 460.08 570.26 464.96 569.65 468.01C568.73 470.76 568.12 468.31 568.12 462.52C568.12 456.72 568.73 454.28 569.65 457.33Z" id="a3Sda7L29m"></path><path d="M108.95 448.18C109.56 450.92 109.56 455.81 108.95 458.86C108.04 461.6 107.43 459.16 107.43 453.36C107.43 447.57 108.04 445.13 108.95 448.18Z" id="eSu58kZ8J"></path><path d="M99.8 349.02C99.74 347.64 99.43 340.72 98.89 328.28L338.69 328.28L578.5 328.28C577.95 340.54 577.64 347.35 577.58 348.72C576.97 360.31 575.75 378.01 574.83 388.68C574.71 389.95 574.1 396.25 573 407.6L338.69 407.6L104.38 407.6L102.55 388.68C101.12 369.77 100.21 356.55 99.8 349.02Z" id="a2iMaI2MPA"></path><path d="M90.65 385.63C91.26 389.29 91.26 395.4 90.65 399.36C90.04 403.02 89.43 399.97 89.43 392.35C89.43 384.72 90.04 381.67 90.65 385.63Z" id="g4zTKG4Bo"></path><path d="M587.95 385.63C588.56 389.29 588.56 394.79 587.95 397.84C587.04 400.58 586.43 397.53 586.73 390.82C586.73 384.11 587.34 381.67 587.95 385.63Z" id="aXLeLz22r"></path><path d="M87.6 326.14C88.21 330.72 88.21 338.04 87.6 342.92C86.99 347.5 86.38 343.53 86.38 334.38C86.38 325.22 86.99 321.26 87.6 326.14Z" id="bOratdBOS"></path><path d="M591 326.14C591.61 330.72 591.61 338.04 591 342.92C590.39 347.5 589.78 343.53 589.78 334.38C589.78 325.22 590.39 321.26 591 326.14Z" id="e4pj7XCogS"></path><path d="M145.87 212.34C151.97 201.36 161.43 194.95 157.77 204.41C156.55 207.46 155.63 233.7 155.63 262.99C155.63 266.52 155.63 284.22 155.63 316.07L148.01 316.07L140.38 316.07L140.38 269.39C140.99 237.26 142.82 218.24 145.87 212.34Z" id="jI5nhiYQV"></path><path d="M176.99 192.51C190.11 192.51 192.24 202.58 192.24 262.07C192.24 265.67 192.24 283.67 192.24 316.07L176.99 316.07L161.74 316.07L161.74 262.07C163.16 215.7 168.24 192.51 176.99 192.51Z" id="f9L1jCcCc"></path><path d="M196.52 203.19C196.37 202.54 195.66 199.28 194.38 193.42C199.14 196.35 201.78 197.98 202.31 198.31C215.74 207.46 225.81 236.75 215.13 236.75C212.69 236.75 210.55 238.27 210.55 239.8C210.55 241.63 212.69 242.85 215.13 242.85C218.48 242.85 219.7 246.51 219.7 258.1C219.7 269.7 218.48 273.36 215.13 273.36C212.69 273.36 210.55 274.88 210.55 276.41C210.55 278.24 212.69 279.46 215.13 279.46C218.79 279.46 219.7 283.43 219.7 297.77C219.7 298.99 219.7 305.09 219.7 316.07L209.03 316.07L198.35 316.07L198.35 264.51C197.74 227.29 197.13 206.85 196.52 203.19Z" id="geahZLw9Y"></path><path d="M237.7 64.37C242.59 53.38 264.55 30.2 267.3 33.25C267.91 33.86 266.99 39.05 265.47 44.84C263.64 50.94 262.42 109.22 262.42 185.49C262.42 194.2 262.42 237.72 262.42 316.07L247.16 316.07L231.91 316.07L231.91 196.47C232.31 115.73 234.25 71.69 237.7 64.37Z" id="brPJxlNKz"></path><path d="M274.62 35.99C282.86 23.49 296.89 23.49 305.13 35.99C309.1 41.79 309.71 64.37 310.62 179.69C310.68 188.79 310.99 234.25 311.54 316.07L289.88 316.07L268.21 316.07L269.13 179.69C270.15 87.76 271.98 39.86 274.62 35.99Z" id="cJvOqake1"></path><path d="M313.06 37.82C309.1 29.28 315.81 31.11 328.32 42.1C350.59 61.93 350.89 61.93 350.89 196.47C350.89 204.45 350.89 244.31 350.89 316.07L334.11 316.07L317.64 316.07L316.72 179.69C315.3 86.95 314.08 39.66 313.06 37.82Z" id="be8oAlFyz"></path><path d="M367.67 279.46C370.12 279.46 372.25 278.24 372.25 276.41C372.25 274.88 370.12 273.36 367.67 273.36C364.32 273.36 363.1 269.7 363.1 258.1C363.1 246.51 364.32 242.85 367.67 242.85C370.12 242.85 372.25 241.63 372.25 239.8C372.25 238.27 370.12 236.75 367.67 236.75C364.93 236.75 363.1 234 363.1 229.73C363.1 222.1 372.56 202.58 377.13 201.05C378.66 200.44 379.57 224.24 378.96 258.1C378.9 261.97 378.6 281.29 378.05 316.07C373.65 316.07 371.21 316.07 370.73 316.07C363.4 316.07 363.1 315.16 363.1 297.77C363.1 283.43 364.01 279.46 367.67 279.46Z" id="b1ax8rZfbQ"></path><path d="M399.71 192.51C412.83 192.51 414.96 202.58 414.96 262.07C414.96 265.67 414.96 283.67 414.96 316.07L399.71 316.07L384.45 316.07L384.45 262.07C385.88 215.7 390.96 192.51 399.71 192.51Z" id="blHCpdwSp"></path><path d="M418.02 201.97C414.35 191.9 418.02 191.9 428.39 201.66C440.59 212.95 442.42 221.49 442.42 270.61C442.42 273.64 442.42 288.8 442.42 316.07L431.74 316.07L421.07 316.07L421.07 262.99C420.25 225.15 419.24 204.81 418.02 201.97Z" id="ah3j6gtm6"></path><path d="M459.2 300.82C461.64 300.82 463.78 299.6 463.78 297.77C463.78 296.24 461.64 294.72 459.2 294.72C455.85 294.72 454.63 291.05 454.63 279.46C454.63 267.87 455.85 264.21 459.2 264.21C461.64 264.21 463.78 262.99 463.78 261.15C463.78 259.63 461.64 258.1 459.2 258.1C456.76 258.1 454.63 255.97 454.63 253.22C454.63 244.98 464.39 227.59 470.8 224.24C476.29 221.19 476.59 221.49 475.07 227.9C473.85 231.87 472.93 253.53 472.93 275.8C472.93 278.48 472.93 291.91 472.93 316.07C467.44 316.07 464.39 316.07 463.78 316.07C456.15 316.07 454.63 314.85 454.63 308.44C454.63 303.56 456.46 300.82 459.2 300.82Z" id="lfpRLJVuh"></path><path d="M494.29 216.92C506.49 216.92 509.54 227.59 509.54 274.27C509.54 277.06 509.54 290.99 509.54 316.07L494.29 316.07L479.03 316.07L479.03 274.27C481.07 236.04 486.15 216.92 494.29 216.92Z" id="a2Y1ydnni9"></path><path d="M513.51 227.9C511.98 221.49 512.29 221.19 517.78 224.24C529.68 230.34 533.95 245.9 533.95 282.21C533.95 284.46 533.95 295.75 533.95 316.07L524.8 316.07L515.65 316.07L515.65 275.8C515.04 246.51 514.32 230.54 513.51 227.9Z" id="e1SUCTPEho"></path><path d="M126.95 529.64C124.51 500.35 121.46 463.43 120.55 448.18C120.43 446.29 119.82 436.83 118.72 419.8C250.52 419.8 323.74 419.8 338.39 419.8C545.85 419.8 558.36 420.11 558.36 425.3C558.36 436.28 550.73 540.93 547.38 574.79C547.25 576.05 546.64 582.36 545.55 593.71C421.25 593.71 352.2 593.71 338.39 593.71C141.29 593.71 131.23 593.4 131.23 588.22C131.23 585.17 129.4 558.93 126.95 529.64Z" id="d1D46S6FPh"></path><path d="M99.19 336.82C99.11 336.25 98.7 333.4 97.97 328.28L338.69 328.28L579.72 328.28C578.8 333.22 578.29 335.96 578.19 336.51C576.97 343.53 574.22 386.55 573.61 403.94C573.61 406.69 524.49 407.6 338.69 407.6C152.89 407.6 103.77 406.69 103.77 403.94C103.16 386.55 100.41 343.53 99.19 336.82Z" id="b1bzzMibYA"></path><path d="M154.72 231.56C155.33 248.04 155.33 273.97 154.72 289.53C154.41 305.09 153.8 291.66 153.8 259.63C153.8 227.9 154.41 215.09 154.72 231.56Z" id="b8H8eOybpI"></path><path d="M170.28 196.47C170.73 196.03 172.96 193.79 176.99 189.76C181.2 193.79 183.54 196.03 184.01 196.47C190.41 202.88 190.72 205.93 191.63 259.63C191.72 263.39 192.12 282.21 192.86 316.07L176.99 316.07L161.13 316.07L162.35 259.63C163.16 221.8 165.8 200.75 170.28 196.47Z" id="b1LonRtojm"></path><path d="M200.48 231.56C201.09 248.04 201.09 273.97 200.48 289.53C200.18 305.09 199.57 291.66 199.57 259.63C199.57 227.9 200.18 215.09 200.48 231.56Z" id="c2jBVzCKrw"></path><path d="M257.84 44.54C260.59 39.35 263.03 35.38 263.33 35.38C263.64 35.38 263.33 54.91 262.72 78.71C262.11 107.08 260.59 123.25 258.15 124.47C255.7 126.3 255.7 126.91 258.76 126.91C261.5 126.91 262.42 147.96 262.42 221.49C262.42 303.56 261.81 316.07 257.84 316.07C253.87 316.07 253.26 299.6 253.26 184.88C253.26 72.91 253.87 52.16 257.84 44.54Z" id="broa4lA4J"></path><path d="M270.04 40.88C275.17 36.48 278.02 34.04 278.59 33.55C289.27 24.4 290.49 24.4 301.16 33.55C301.73 34.04 304.58 36.48 309.71 40.88L310.62 178.47L311.54 316.07L289.88 316.07L268.21 316.07L269.13 178.47L270.04 40.88Z" id="aGU6umCU"></path><path d="M314.28 40.27C312.15 34.16 312.45 32.94 316.11 34.47C328.93 39.35 329.54 47.28 329.54 184.88C329.54 313.63 329.54 316.07 323.44 316.07C317.64 316.07 317.33 313.63 317.33 182.13C317.33 103.73 316.11 44.84 314.28 40.27Z" id="b1FBbAI1"></path><path d="M393 196.47C393.45 196.03 395.68 193.79 399.71 189.76C403.92 193.79 406.26 196.03 406.73 196.47C413.13 202.88 413.44 205.93 414.35 259.63C414.44 263.39 414.84 282.21 415.57 316.07L399.71 316.07L383.84 316.07L385.07 259.63C385.88 221.8 388.52 200.75 393 196.47Z" id="aYmafR0zM"></path><path d="M423.51 200.75C428.08 204.71 429 316.07 424.12 316.07C422.59 316.07 421.07 291.97 420.46 256.88C419.85 209.59 420.46 198.31 423.51 200.75Z" id="b2N8w5lC3e"></path><path d="M472.02 249.87C472.63 262.99 472.63 283.43 472.02 295.63C471.71 307.83 471.1 297.16 471.1 271.83C471.1 246.82 471.71 236.75 472.02 249.87Z" id="lxR3kXilU"></path><path d="M487.58 220.88C488.02 220.43 490.26 218.2 494.29 214.17C498.5 218.2 500.84 220.43 501.31 220.88C507.41 227.29 508.02 230.95 508.93 271.83C509.02 274.78 509.42 289.53 510.15 316.07L494.29 316.07L478.42 316.07L479.64 271.83C480.66 242.14 483.31 225.15 487.58 220.88Z" id="b43MCHfFD"></path><path d="M517.78 249.87C518.39 262.99 518.39 283.43 517.78 295.63C517.48 307.83 516.87 297.16 516.87 271.83C516.87 246.82 517.48 236.75 517.78 249.87Z" id="iHZyw7da6"></path><path d="M126.95 529.64C124.51 500.35 121.77 463.43 120.55 448.18C120.45 446.29 119.94 436.83 119.02 419.8C250.82 419.8 324.05 419.8 338.69 419.8C545.85 419.8 558.36 420.11 558.36 425.3C558.36 436.28 550.73 540.93 547.38 574.79C547.25 576.05 546.64 582.36 545.55 593.71C421.25 593.71 352.2 593.71 338.39 593.71C141.29 593.71 131.23 593.4 131.23 588.22C131.23 585.17 129.09 558.93 126.95 529.64Z" id="a1ORnCu6h"></path><path d="M99.19 336.82C99.11 336.25 98.7 333.4 97.97 328.28L338.69 328.28L579.72 328.28C578.8 333.22 578.29 335.96 578.19 336.51C576.97 343.53 574.22 386.55 573.61 403.94C573.61 406.69 524.49 407.6 338.69 407.6C152.89 407.6 103.77 406.69 103.77 403.94C103.16 386.55 100.41 343.53 99.19 336.82Z" id="b1u6jZWRWg"></path></defs><g><g><g><use xlink:href="#amPIpOzED" opacity="1" fill="#2f2f2f" fill-opacity="1"></use><g><use xlink:href="#amPIpOzED" opacity="1" fill-opacity="0" stroke="#000000" stroke-width="1" stroke-opacity="0"></use></g></g><g><use xlink:href="#agqffzZrP" opacity="1" fill="#365c46" fill-opacity="1"></use><g><use xlink:href="#agqffzZrP" opacity="1" fill-opacity="0" stroke="#000000" stroke-width="1" stroke-opacity="0"></use></g></g><g><use xlink:href="#b5yvXcyc" opacity="1" fill="#365c46" fill-opacity="1"></use><g><use xlink:href="#b5yvXcyc" opacity="1" fill-opacity="0" stroke="#000000" stroke-width="1" stroke-opacity="0"></use></g></g><g><use xlink:href="#a1544vlkPA" opacity="1" fill="#365c46" fill-opacity="1"></use><g><use xlink:href="#a1544vlkPA" opacity="1" fill-opacity="0" stroke="#000000" stroke-width="1" stroke-opacity="0"></use></g></g><g><use xlink:href="#gdMN6Idh3" opacity="1" fill="#365c46" fill-opacity="1"></use><g><use xlink:href="#gdMN6Idh3" opacity="1" fill-opacity="0" stroke="#000000" stroke-width="1" stroke-opacity="0"></use></g></g><g><use xlink:href="#d2z5KbFQUg" opacity="1" fill="#365c46" fill-opacity="1"></use><g><use xlink:href="#d2z5KbFQUg" opacity="1" fill-opacity="0" stroke="#000000" stroke-width="1" stroke-opacity="0"></use></g></g><g><use xlink:href="#a5dHqZOvN" opacity="1" fill="#365c46" fill-opacity="1"></use><g><use xlink:href="#a5dHqZOvN" opacity="1" fill-opacity="0" stroke="#000000" stroke-width="1" stroke-opacity="0"></use></g></g><g><use xlink:href="#a3SejENGbJ" opacity="1" fill="#365c46" fill-opacity="1"></use><g><use xlink:href="#a3SejENGbJ" opacity="1" fill-opacity="0" stroke="#000000" stroke-width="1" stroke-opacity="0"></use></g></g><g><use xlink:href="#cvmuXCPcO" opacity="1" fill="#365c46" fill-opacity="1"></use><g><use xlink:href="#cvmuXCPcO" opacity="1" fill-opacity="0" stroke="#000000" stroke-width="1" stroke-opacity="0"></use></g></g><g><use xlink:href="#azkOw0h0O" opacity="1" fill="#365c46" fill-opacity="1"></use><g><use xlink:href="#azkOw0h0O" opacity="1" fill-opacity="0" stroke="#000000" stroke-width="1" stroke-opacity="0"></use></g></g><g><use xlink:href="#b1054kls7u" opacity="1" fill="#365c46" fill-opacity="1"></use><g><use xlink:href="#b1054kls7u" opacity="1" fill-opacity="0" stroke="#000000" stroke-width="1" stroke-opacity="0"></use></g></g><g><use xlink:href="#a2bTkN6xbR" opacity="1" fill="#365c46" fill-opacity="1"></use><g><use xlink:href="#a2bTkN6xbR" opacity="1" fill-opacity="0" stroke="#000000" stroke-width="1" stroke-opacity="0"></use></g></g><g><use xlink:href="#b1GhVJV1Pj" opacity="1" fill="#365c46" fill-opacity="1"></use><g><use xlink:href="#b1GhVJV1Pj" opacity="1" fill-opacity="0" stroke="#000000" stroke-width="1" stroke-opacity="0"></use></g></g><g><use xlink:href="#a2IuICCiKI" opacity="1" fill="#365c46" fill-opacity="1"></use><g><use xlink:href="#a2IuICCiKI" opacity="1" fill-opacity="0" stroke="#000000" stroke-width="1" stroke-opacity="0"></use></g></g><g><use xlink:href="#a6ux0Jae6D" opacity="1" fill="#365c46" fill-opacity="1"></use><g><use xlink:href="#a6ux0Jae6D" opacity="1" fill-opacity="0" stroke="#000000" stroke-width="1" stroke-opacity="0"></use></g></g><g><use xlink:href="#a4bRlMZZzC" opacity="1" fill="#365c46" fill-opacity="1"></use><g><use xlink:href="#a4bRlMZZzC" opacity="1" fill-opacity="0" stroke="#000000" stroke-width="1" stroke-opacity="0"></use></g></g><g><use xlink:href="#e9Me1OX8K" opacity="1" fill="#365c46" fill-opacity="1"></use><g><use xlink:href="#e9Me1OX8K" opacity="1" fill-opacity="0" stroke="#000000" stroke-width="1" stroke-opacity="0"></use></g></g><g><use xlink:href="#e18H2ojiCG" opacity="1" fill="#365c46" fill-opacity="1"></use><g><use xlink:href="#e18H2ojiCG" opacity="1" fill-opacity="0" stroke="#000000" stroke-width="1" stroke-opacity="0"></use></g></g><g><use xlink:href="#e4VGnvSQDt" opacity="1" fill="#365c46" fill-opacity="1"></use><g><use xlink:href="#e4VGnvSQDt" opacity="1" fill-opacity="0" stroke="#000000" stroke-width="1" stroke-opacity="0"></use></g></g><g><use xlink:href="#h4SovEOMA" opacity="1" fill="#365c46" fill-opacity="1"></use><g><use xlink:href="#h4SovEOMA" opacity="1" fill-opacity="0" stroke="#000000" stroke-width="1" stroke-opacity="0"></use></g></g><g><use xlink:href="#b68HGGrEg8" opacity="1" fill="#365c46" fill-opacity="1"></use><g><use xlink:href="#b68HGGrEg8" opacity="1" fill-opacity="0" stroke="#000000" stroke-width="1" stroke-opacity="0"></use></g></g><g><use xlink:href="#c413FKUhDG" opacity="1" fill="#365c46" fill-opacity="1"></use><g><use xlink:href="#c413FKUhDG" opacity="1" fill-opacity="0" stroke="#000000" stroke-width="1" stroke-opacity="0"></use></g></g><g><use xlink:href="#a3adt95Ma" opacity="1" fill="#365c46" fill-opacity="1"></use><g><use xlink:href="#a3adt95Ma" opacity="1" fill-opacity="0" stroke="#000000" stroke-width="1" stroke-opacity="0"></use></g></g><g><use xlink:href="#cJtz88Dx" opacity="1" fill="#365c46" fill-opacity="1"></use><g><use xlink:href="#cJtz88Dx" opacity="1" fill-opacity="0" stroke="#000000" stroke-width="1" stroke-opacity="0"></use></g></g><g><use xlink:href="#aQqjTF0mx" opacity="1" fill="#365c46" fill-opacity="1"></use><g><use xlink:href="#aQqjTF0mx" opacity="1" fill-opacity="0" stroke="#000000" stroke-width="1" stroke-opacity="0"></use></g></g><g><use xlink:href="#h14TTRWd1b" opacity="1" fill="#365c46" fill-opacity="1"></use><g><use xlink:href="#h14TTRWd1b" opacity="1" fill-opacity="0" stroke="#000000" stroke-width="1" stroke-opacity="0"></use></g></g><g><use xlink:href="#bchffSQxE" opacity="1" fill="#365c46" fill-opacity="1"></use><g><use xlink:href="#bchffSQxE" opacity="1" fill-opacity="0" stroke="#000000" stroke-width="1" stroke-opacity="0"></use></g></g><g><use xlink:href="#bhkIiBMKK" opacity="1" fill="#365c46" fill-opacity="1"></use><g><use xlink:href="#bhkIiBMKK" opacity="1" fill-opacity="0" stroke="#000000" stroke-width="1" stroke-opacity="0"></use></g></g><g><use xlink:href="#aspxnWduI" opacity="1" fill="#365c46" fill-opacity="1"></use><g><use xlink:href="#aspxnWduI" opacity="1" fill-opacity="0" stroke="#000000" stroke-width="1" stroke-opacity="0"></use></g></g><g><use xlink:href="#b1cOcAtGwH" opacity="1" fill="#365c46" fill-opacity="1"></use><g><use xlink:href="#b1cOcAtGwH" opacity="1" fill-opacity="0" stroke="#000000" stroke-width="1" stroke-opacity="0"></use></g></g><g><use xlink:href="#db9XafYb0" opacity="1" fill="#365c46" fill-opacity="1"></use><g><use xlink:href="#db9XafYb0" opacity="1" fill-opacity="0" stroke="#000000" stroke-width="1" stroke-opacity="0"></use></g></g><g><use xlink:href="#a3aUQTM1iY" opacity="1" fill="#365c46" fill-opacity="1"></use><g><use xlink:href="#a3aUQTM1iY" opacity="1" fill-opacity="0" stroke="#000000" stroke-width="1" stroke-opacity="0"></use></g></g><g><use xlink:href="#c4XQL9iSSN" opacity="1" fill="#365c46" fill-opacity="1"></use><g><use xlink:href="#c4XQL9iSSN" opacity="1" fill-opacity="0" stroke="#000000" stroke-width="1" stroke-opacity="0"></use></g></g><g><use xlink:href="#b4BFXR6M2r" opacity="1" fill="#365c46" fill-opacity="1"></use><g><use xlink:href="#b4BFXR6M2r" opacity="1" fill-opacity="0" stroke="#000000" stroke-width="1" stroke-opacity="0"></use></g></g><g><use xlink:href="#c1QqFyIYXc" opacity="1" fill="#365c46" fill-opacity="1"></use><g><use xlink:href="#c1QqFyIYXc" opacity="1" fill-opacity="0" stroke="#000000" stroke-width="1" stroke-opacity="0"></use></g></g><g><use xlink:href="#cgxRtVn9g" opacity="1" fill="#365c46" fill-opacity="1"></use><g><use xlink:href="#cgxRtVn9g" opacity="1" fill-opacity="0" stroke="#000000" stroke-width="1" stroke-opacity="0"></use></g></g><g><use xlink:href="#c7b2Fscvr" opacity="1" fill="#365c46" fill-opacity="1"></use><g><use xlink:href="#c7b2Fscvr" opacity="1" fill-opacity="0" stroke="#000000" stroke-width="1" stroke-opacity="0"></use></g></g><g><use xlink:href="#b1rOPBpjCF" opacity="1" fill="#365c46" fill-opacity="1"></use><g><use xlink:href="#b1rOPBpjCF" opacity="1" fill-opacity="0" stroke="#000000" stroke-width="1" stroke-opacity="0"></use></g></g><g><use xlink:href="#b7f1WwPG11" opacity="1" fill="#365c46" fill-opacity="1"></use><g><use xlink:href="#b7f1WwPG11" opacity="1" fill-opacity="0" stroke="#000000" stroke-width="1" stroke-opacity="0"></use></g></g><g><use xlink:href="#arAoHQBO5" opacity="1" fill="#365c46" fill-opacity="1"></use><g><use xlink:href="#arAoHQBO5" opacity="1" fill-opacity="0" stroke="#000000" stroke-width="1" stroke-opacity="0"></use></g></g><g><use xlink:href="#d3GaJeLuyV" opacity="1" fill="#365c46" fill-opacity="1"></use><g><use xlink:href="#d3GaJeLuyV" opacity="1" fill-opacity="0" stroke="#000000" stroke-width="1" stroke-opacity="0"></use></g></g><g><use xlink:href="#ah6oPsTCL" opacity="1" fill="#365c46" fill-opacity="1"></use><g><use xlink:href="#ah6oPsTCL" opacity="1" fill-opacity="0" stroke="#000000" stroke-width="1" stroke-opacity="0"></use></g></g><g><use xlink:href="#bNSuElk1Q" opacity="1" fill="#44ab6c" fill-opacity="1"></use><g><use xlink:href="#bNSuElk1Q" opacity="1" fill-opacity="0" stroke="#000000" stroke-width="1" stroke-opacity="0"></use></g></g><g><use xlink:href="#a4VnhAejc" opacity="1" fill="#44ab6c" fill-opacity="1"></use><g><use xlink:href="#a4VnhAejc" opacity="1" fill-opacity="0" stroke="#000000" stroke-width="1" stroke-opacity="0"></use></g></g><g><use xlink:href="#airmKuMo9" opacity="1" fill="#44ab6c" fill-opacity="1"></use><g><use xlink:href="#airmKuMo9" opacity="1" fill-opacity="0" stroke="#000000" stroke-width="1" stroke-opacity="0"></use></g></g><g><use xlink:href="#nfzO0uN4w" opacity="1" fill="#44ab6c" fill-opacity="1"></use><g><use xlink:href="#nfzO0uN4w" opacity="1" fill-opacity="0" stroke="#000000" stroke-width="1" stroke-opacity="0"></use></g></g><g><use xlink:href="#g7QyMQZnY" opacity="1" fill="#44ab6c" fill-opacity="1"></use><g><use xlink:href="#g7QyMQZnY" opacity="1" fill-opacity="0" stroke="#000000" stroke-width="1" stroke-opacity="0"></use></g></g><g><use xlink:href="#a3Sda7L29m" opacity="1" fill="#44ab6c" fill-opacity="1"></use><g><use xlink:href="#a3Sda7L29m" opacity="1" fill-opacity="0" stroke="#000000" stroke-width="1" stroke-opacity="0"></use></g></g><g><use xlink:href="#eSu58kZ8J" opacity="1" fill="#44ab6c" fill-opacity="1"></use><g><use xlink:href="#eSu58kZ8J" opacity="1" fill-opacity="0" stroke="#000000" stroke-width="1" stroke-opacity="0"></use></g></g><g><use xlink:href="#a2iMaI2MPA" opacity="1" fill="#44ab6c" fill-opacity="1"></use><g><use xlink:href="#a2iMaI2MPA" opacity="1" fill-opacity="0" stroke="#000000" stroke-width="1" stroke-opacity="0"></use></g></g><g><use xlink:href="#g4zTKG4Bo" opacity="1" fill="#44ab6c" fill-opacity="1"></use><g><use xlink:href="#g4zTKG4Bo" opacity="1" fill-opacity="0" stroke="#000000" stroke-width="1" stroke-opacity="0"></use></g></g><g><use xlink:href="#aXLeLz22r" opacity="1" fill="#44ab6c" fill-opacity="1"></use><g><use xlink:href="#aXLeLz22r" opacity="1" fill-opacity="0" stroke="#000000" stroke-width="1" stroke-opacity="0"></use></g></g><g><use xlink:href="#bOratdBOS" opacity="1" fill="#44ab6c" fill-opacity="1"></use><g><use xlink:href="#bOratdBOS" opacity="1" fill-opacity="0" stroke="#000000" stroke-width="1" stroke-opacity="0"></use></g></g><g><use xlink:href="#e4pj7XCogS" opacity="1" fill="#44ab6c" fill-opacity="1"></use><g><use xlink:href="#e4pj7XCogS" opacity="1" fill-opacity="0" stroke="#000000" stroke-width="1" stroke-opacity="0"></use></g></g><g><use xlink:href="#jI5nhiYQV" opacity="1" fill="#44ab6c" fill-opacity="1"></use><g><use xlink:href="#jI5nhiYQV" opacity="1" fill-opacity="0" stroke="#000000" stroke-width="1" stroke-opacity="0"></use></g></g><g><use xlink:href="#f9L1jCcCc" opacity="1" fill="#44ab6c" fill-opacity="1"></use><g><use xlink:href="#f9L1jCcCc" opacity="1" fill-opacity="0" stroke="#000000" stroke-width="1" stroke-opacity="0"></use></g></g><g><use xlink:href="#geahZLw9Y" opacity="1" fill="#44ab6c" fill-opacity="1"></use><g><use xlink:href="#geahZLw9Y" opacity="1" fill-opacity="0" stroke="#000000" stroke-width="1" stroke-opacity="0"></use></g></g><g><use xlink:href="#brPJxlNKz" opacity="1" fill="#44ab6c" fill-opacity="1"></use><g><use xlink:href="#brPJxlNKz" opacity="1" fill-opacity="0" stroke="#000000" stroke-width="1" stroke-opacity="0"></use></g></g><g><use xlink:href="#cJvOqake1" opacity="1" fill="#44ab6c" fill-opacity="1"></use><g><use xlink:href="#cJvOqake1" opacity="1" fill-opacity="0" stroke="#000000" stroke-width="1" stroke-opacity="0"></use></g></g><g><use xlink:href="#be8oAlFyz" opacity="1" fill="#44ab6c" fill-opacity="1"></use><g><use xlink:href="#be8oAlFyz" opacity="1" fill-opacity="0" stroke="#000000" stroke-width="1" stroke-opacity="0"></use></g></g><g><use xlink:href="#b1ax8rZfbQ" opacity="1" fill="#44ab6c" fill-opacity="1"></use><g><use xlink:href="#b1ax8rZfbQ" opacity="1" fill-opacity="0" stroke="#000000" stroke-width="1" stroke-opacity="0"></use></g></g><g><use xlink:href="#blHCpdwSp" opacity="1" fill="#44ab6c" fill-opacity="1"></use><g><use xlink:href="#blHCpdwSp" opacity="1" fill-opacity="0" stroke="#000000" stroke-width="1" stroke-opacity="0"></use></g></g><g><use xlink:href="#ah3j6gtm6" opacity="1" fill="#44ab6c" fill-opacity="1"></use><g><use xlink:href="#ah3j6gtm6" opacity="1" fill-opacity="0" stroke="#000000" stroke-width="1" stroke-opacity="0"></use></g></g><g><use xlink:href="#lfpRLJVuh" opacity="1" fill="#44ab6c" fill-opacity="1"></use><g><use xlink:href="#lfpRLJVuh" opacity="1" fill-opacity="0" stroke="#000000" stroke-width="1" stroke-opacity="0"></use></g></g><g><use xlink:href="#a2Y1ydnni9" opacity="1" fill="#44ab6c" fill-opacity="1"></use><g><use xlink:href="#a2Y1ydnni9" opacity="1" fill-opacity="0" stroke="#000000" stroke-width="1" stroke-opacity="0"></use></g></g><g><use xlink:href="#e1SUCTPEho" opacity="1" fill="#44ab6c" fill-opacity="1"></use><g><use xlink:href="#e1SUCTPEho" opacity="1" fill-opacity="0" stroke="#000000" stroke-width="1" stroke-opacity="0"></use></g></g><g><use xlink:href="#d1D46S6FPh" opacity="1" fill="#59c885" fill-opacity="1"></use><g><use xlink:href="#d1D46S6FPh" opacity="1" fill-opacity="0" stroke="#000000" stroke-width="1" stroke-opacity="0"></use></g></g><g><use xlink:href="#b1bzzMibYA" opacity="1" fill="#59c885" fill-opacity="1"></use><g><use xlink:href="#b1bzzMibYA" opacity="1" fill-opacity="0" stroke="#000000" stroke-width="1" stroke-opacity="0"></use></g></g><g><use xlink:href="#b8H8eOybpI" opacity="1" fill="#59c885" fill-opacity="1"></use><g><use xlink:href="#b8H8eOybpI" opacity="1" fill-opacity="0" stroke="#000000" stroke-width="1" stroke-opacity="0"></use></g></g><g><use xlink:href="#b1LonRtojm" opacity="1" fill="#59c885" fill-opacity="1"></use><g><use xlink:href="#b1LonRtojm" opacity="1" fill-opacity="0" stroke="#000000" stroke-width="1" stroke-opacity="0"></use></g></g><g><use xlink:href="#c2jBVzCKrw" opacity="1" fill="#59c885" fill-opacity="1"></use><g><use xlink:href="#c2jBVzCKrw" opacity="1" fill-opacity="0" stroke="#000000" stroke-width="1" stroke-opacity="0"></use></g></g><g><use xlink:href="#broa4lA4J" opacity="1" fill="#59c885" fill-opacity="1"></use><g><use xlink:href="#broa4lA4J" opacity="1" fill-opacity="0" stroke="#000000" stroke-width="1" stroke-opacity="0"></use></g></g><g><use xlink:href="#aGU6umCU" opacity="1" fill="#59c885" fill-opacity="1"></use><g><use xlink:href="#aGU6umCU" opacity="1" fill-opacity="0" stroke="#000000" stroke-width="1" stroke-opacity="0"></use></g></g><g><use xlink:href="#b1FBbAI1" opacity="1" fill="#59c885" fill-opacity="1"></use><g><use xlink:href="#b1FBbAI1" opacity="1" fill-opacity="0" stroke="#000000" stroke-width="1" stroke-opacity="0"></use></g></g><g><use xlink:href="#aYmafR0zM" opacity="1" fill="#59c885" fill-opacity="1"></use><g><use xlink:href="#aYmafR0zM" opacity="1" fill-opacity="0" stroke="#000000" stroke-width="1" stroke-opacity="0"></use></g></g><g><use xlink:href="#b2N8w5lC3e" opacity="1" fill="#59c885" fill-opacity="1"></use><g><use xlink:href="#b2N8w5lC3e" opacity="1" fill-opacity="0" stroke="#000000" stroke-width="1" stroke-opacity="0"></use></g></g><g><use xlink:href="#lxR3kXilU" opacity="1" fill="#59c885" fill-opacity="1"></use><g><use xlink:href="#lxR3kXilU" opacity="1" fill-opacity="0" stroke="#000000" stroke-width="1" stroke-opacity="0"></use></g></g><g><use xlink:href="#b43MCHfFD" opacity="1" fill="#59c885" fill-opacity="1"></use><g><use xlink:href="#b43MCHfFD" opacity="1" fill-opacity="0" stroke="#000000" stroke-width="1" stroke-opacity="0"></use></g></g><g><use xlink:href="#iHZyw7da6" opacity="1" fill="#59c885" fill-opacity="1"></use><g><use xlink:href="#iHZyw7da6" opacity="1" fill-opacity="0" stroke="#000000" stroke-width="1" stroke-opacity="0"></use></g></g><g><use xlink:href="#a1ORnCu6h" opacity="1" fill="#a2c1a7" fill-opacity="1"></use><g><use xlink:href="#a1ORnCu6h" opacity="1" fill-opacity="0" stroke="#000000" stroke-width="1" stroke-opacity="0"></use></g></g><g><use xlink:href="#b1u6jZWRWg" opacity="1" fill="#a2c1a7" fill-opacity="1"></use><g><use xlink:href="#b1u6jZWRWg" opacity="1" fill-opacity="0" stroke="#000000" stroke-width="1" stroke-opacity="0"></use></g></g></g></g></svg>